<svg width="68" height="51" viewBox="0 0 68 51" fill="none" xmlns="http://www.w3.org/2000/svg">
<path d="M55.25 45.3311H41.0833C40.7076 45.3311 40.3473 45.1818 40.0816 44.9161C39.8159 44.6504 39.6667 44.2901 39.6667 43.9144C39.6667 43.5387 39.8159 43.1783 40.0816 42.9127C40.3473 42.647 40.7076 42.4977 41.0833 42.4977H55.25C57.5932 42.4977 59.5 40.5909 59.5 38.2477V35.4144C59.5 35.0387 59.6493 34.6783 59.9149 34.4127C60.1806 34.147 60.5409 33.9977 60.9167 33.9977H63.7245C64.1002 33.9977 64.4606 33.8485 64.7262 33.5828C64.9919 33.3171 65.1412 32.9568 65.1412 32.5811V15.5811C65.1412 15.2053 64.9919 14.845 64.7262 14.5793C64.4606 14.3136 64.1002 14.1644 63.7245 14.1644H60.9167C60.5409 14.1644 60.1806 14.0151 59.9149 13.7495C59.6493 13.4838 59.5 13.1234 59.5 12.7477V9.91439C59.5 7.57122 57.5932 5.66439 55.25 5.66439H46.75C46.3743 5.66439 46.0139 5.51513 45.7483 5.24946C45.4826 4.98378 45.3333 4.62344 45.3333 4.24772C45.3333 3.872 45.4826 3.51166 45.7483 3.24599C46.0139 2.98031 46.3743 2.83105 46.75 2.83105H55.25C59.1543 2.83105 62.3333 6.01005 62.3333 9.91439V11.3311H63.7245C66.0677 11.3311 67.9745 13.2379 67.9745 15.5811V32.5811C67.9745 34.9242 66.0677 36.8311 63.7245 36.8311H62.3333V38.2477C62.3333 42.1521 59.1543 45.3311 55.25 45.3311ZM18.4167 45.3311H7.08333C5.20541 45.3288 3.40504 44.5818 2.07714 43.2539C0.749249 41.926 0.00224946 40.1256 0 38.2477L0 9.91439C0 6.01005 3.179 2.83105 7.08333 2.83105H26.9167C27.2924 2.83105 27.6527 2.98031 27.9184 3.24599C28.1841 3.51166 28.3333 3.872 28.3333 4.24772C28.3333 4.62344 28.1841 4.98378 27.9184 5.24946C27.6527 5.51513 27.2924 5.66439 26.9167 5.66439H7.08333C4.74017 5.66439 2.83333 7.57122 2.83333 9.91439V38.2477C2.83333 40.5909 4.74017 42.4977 7.08333 42.4977H18.4167C18.7924 42.4977 19.1527 42.647 19.4184 42.9127C19.6841 43.1783 19.8333 43.5387 19.8333 43.9144C19.8333 44.2901 19.6841 44.6504 19.4184 44.9161C19.1527 45.1818 18.7924 45.3311 18.4167 45.3311Z" fill="url(#paint0_linear_797_910)"/>
<path d="M26.3584 50.9977C26.1343 50.9974 25.9136 50.9439 25.7142 50.8418C25.5149 50.7396 25.3426 50.5916 25.2115 50.4099C25.0804 50.2282 24.9943 50.0181 24.9602 49.7966C24.9261 49.5752 24.945 49.3489 25.0154 49.1362L30.9484 31.1644H19.8332C19.5745 31.1645 19.3207 31.0937 19.0994 30.9598C18.8781 30.8259 18.6976 30.634 18.5776 30.4048C18.4576 30.1756 18.4027 29.918 18.4187 29.6598C18.4348 29.4016 18.5212 29.1527 18.6687 28.9402L38.2924 0.606864C38.4812 0.33933 38.756 0.144515 39.0709 0.0548224C39.3859 -0.0348704 39.7221 -0.0140349 40.0235 0.113864C40.644 0.385864 40.9869 1.05736 40.8424 1.71753L36.853 19.831H48.1665C48.4306 19.8322 48.6892 19.907 48.9131 20.0471C49.137 20.1872 49.3174 20.387 49.4339 20.6239C49.5505 20.8609 49.5987 21.1257 49.573 21.3886C49.5473 21.6515 49.4488 21.9019 49.2885 22.1119L27.4804 50.4452C27.3485 50.6175 27.1787 50.757 26.9841 50.8528C26.7894 50.9487 26.5753 50.9983 26.3584 50.9977ZM22.539 28.331H32.909C33.1333 28.3307 33.3544 28.3838 33.554 28.4858C33.7537 28.5878 33.9263 28.7358 34.0575 28.9177C34.1887 29.0995 34.2748 29.3099 34.3086 29.5316C34.3424 29.7533 34.323 29.9798 34.252 30.1925L30.3137 42.118L45.2879 22.6644H35.0907C34.8788 22.6637 34.6698 22.6156 34.4788 22.5238C34.2879 22.4319 34.1199 22.2986 33.9871 22.1335C33.8543 21.9683 33.7601 21.7757 33.7113 21.5695C33.6625 21.3633 33.6604 21.1488 33.7052 20.9417L36.5272 8.1322L22.539 28.331Z" fill="url(#paint1_linear_797_910)"/>
<defs>
<linearGradient id="paint0_linear_797_910" x1="8" y1="3.24571" x2="36.6373" y2="51.5399" gradientUnits="userSpaceOnUse">
<stop stop-color="#E6D1B3"/>
<stop offset="1" stop-color="#AADAE4"/>
</linearGradient>
<linearGradient id="paint1_linear_797_910" x1="22.0837" y1="0.49756" x2="57.7462" y2="23.4758" gradientUnits="userSpaceOnUse">
<stop stop-color="#E6D1B3"/>
<stop offset="1" stop-color="#AADAE4"/>
</linearGradient>
</defs>
</svg>
