<svg width="54" height="44" viewBox="0 0 54 44" fill="none" xmlns="http://www.w3.org/2000/svg">
<path d="M52.212 7.51742C51.1392 6.3936 49.6578 5.72952 47.9721 5.72952H39.4924V5.62735C39.4924 4.35028 38.9815 3.1243 38.1131 2.30697C37.2447 1.43856 36.0698 0.927734 34.7927 0.927734H19.4679C18.1397 0.927734 16.9648 1.43856 16.0964 2.30697C15.228 3.17538 14.7172 4.35028 14.7172 5.62735V5.72952H6.28852C4.60278 5.72952 3.12138 6.3936 2.04864 7.51742C0.975902 8.59016 0.260742 10.1226 0.260742 11.7573V37.1965C0.260742 38.8823 0.924819 40.3637 2.04864 41.4364C3.12138 42.5092 4.65387 43.2243 6.28852 43.2243H47.9721C49.6578 43.2243 51.1392 42.5602 52.212 41.4364C53.2847 40.3637 53.9999 38.8312 53.9999 37.1965V11.7573C53.9999 10.0716 53.3358 8.59016 52.212 7.51742ZM51.3436 37.1965H51.2925C51.2925 38.116 50.9349 38.9334 50.3219 39.5463C49.7089 40.1593 48.8916 40.5169 47.9721 40.5169H6.28852C5.36902 40.5169 4.5517 40.1593 3.93871 39.5463C3.32571 38.9334 2.96813 38.116 2.96813 37.1965V11.7573C2.96813 10.8378 3.32571 10.0205 3.93871 9.40748C4.5517 8.79449 5.36902 8.43691 6.28852 8.43691H16.1475C16.9137 8.43691 17.5267 7.82392 17.5267 7.05767V5.57627C17.5267 5.01436 17.7311 4.50353 18.0886 4.14595C18.4462 3.78837 18.9571 3.58404 19.519 3.58404H34.7927C35.3546 3.58404 35.8655 3.78837 36.2231 4.14595C36.5806 4.50353 36.785 5.01436 36.785 5.57627V7.05767C36.785 7.82392 37.398 8.43691 38.1642 8.43691H48.0232C48.9427 8.43691 49.76 8.79449 50.373 9.40748C50.986 10.0205 51.3436 10.8378 51.3436 11.7573V37.1965Z" fill="url(#paint0_linear_797_873)"/>
<path d="M27.1303 11.9106C23.6567 11.9106 20.4896 13.3409 18.2419 15.5885C15.9432 17.8873 14.564 21.0033 14.564 24.477C14.564 27.9506 15.9943 31.1177 18.2419 33.3654C20.5407 35.6641 23.6567 37.0433 27.1303 37.0433C30.604 37.0433 33.7711 35.613 36.0188 33.3654C38.3175 31.0666 39.6967 27.9506 39.6967 24.477C39.6967 21.0033 38.2664 17.8362 36.0188 15.5885C33.7711 13.3409 30.604 11.9106 27.1303 11.9106ZM34.0776 31.4753C32.2897 33.2121 29.8377 34.3359 27.1303 34.3359C24.4229 34.3359 21.971 33.2121 20.1831 31.4753C18.3952 29.6874 17.3224 27.2354 17.3224 24.528C17.3224 21.8207 18.4463 19.3687 20.1831 17.5808C21.971 15.7929 24.4229 14.7201 27.1303 14.7201C29.8377 14.7201 32.2897 15.844 34.0776 17.5808C35.8655 19.3687 36.9382 21.8207 36.9382 24.528C36.9893 27.2354 35.8655 29.6874 34.0776 31.4753Z" fill="url(#paint1_linear_797_873)"/>
<path d="M45.3156 16.8656C46.698 16.8656 47.8186 15.745 47.8186 14.3626C47.8186 12.9802 46.698 11.8595 45.3156 11.8595C43.9332 11.8595 42.8125 12.9802 42.8125 14.3626C42.8125 15.745 43.9332 16.8656 45.3156 16.8656Z" fill="url(#paint2_linear_797_873)"/>
<defs>
<linearGradient id="paint0_linear_797_873" x1="27.1303" y1="0.927735" x2="50.7817" y2="30.8878" gradientUnits="userSpaceOnUse">
<stop stop-color="#FFB929"/>
<stop offset="1" stop-color="#9DDCF0"/>
</linearGradient>
<linearGradient id="paint1_linear_797_873" x1="27.1303" y1="11.9106" x2="41.5787" y2="26.3158" gradientUnits="userSpaceOnUse">
<stop stop-color="#FFB929"/>
<stop offset="1" stop-color="#9DDCF0"/>
</linearGradient>
<linearGradient id="paint2_linear_797_873" x1="45.3156" y1="11.8595" x2="48.1935" y2="14.7288" gradientUnits="userSpaceOnUse">
<stop stop-color="#FFB929"/>
<stop offset="1" stop-color="#9DDCF0"/>
</linearGradient>
</defs>
</svg>
