<svg width="48" height="42" viewBox="0 0 48 42" fill="none" xmlns="http://www.w3.org/2000/svg">
<path d="M29.8607 30.1823C34.3123 30.1823 37.9334 26.5612 37.9334 22.1096C37.9334 17.6581 34.3123 14.0359 29.8607 14.0359C25.4092 14.0359 21.7881 17.6581 21.7881 22.1096C21.7881 26.5612 25.4092 30.1823 29.8607 30.1823ZM29.8607 16.0516C31.4668 16.0535 33.0065 16.6923 34.142 17.8281C35.2775 18.9638 35.9162 20.5036 35.9178 22.1096C35.9178 25.4495 33.2007 28.1666 29.8607 28.1666C26.5208 28.1666 23.8037 25.4495 23.8037 22.1096C23.8053 20.5036 24.444 18.9638 25.5795 17.8281C26.715 16.6923 28.2547 16.0535 29.8607 16.0516Z" fill="url(#paint0_linear_797_864)"/>
<path d="M29.8608 19.4399C30.5684 19.4407 31.2467 19.7221 31.747 20.2224C32.2473 20.7227 32.5288 21.4011 32.5296 22.1086C32.5296 22.3759 32.6357 22.6322 32.8248 22.8213C33.0138 23.0103 33.2701 23.1164 33.5374 23.1164C33.8047 23.1164 34.061 23.0103 34.25 22.8213C34.439 22.6322 34.5452 22.3759 34.5452 22.1086C34.5439 20.8667 34.0499 19.6759 33.1717 18.7977C32.2935 17.9195 31.1028 17.4256 29.8608 17.4243C29.5936 17.4243 29.3372 17.5304 29.1482 17.7194C28.9592 17.9084 28.853 18.1648 28.853 18.4321C28.853 18.6994 28.9592 18.9557 29.1482 19.1447C29.3372 19.3337 29.5936 19.4399 29.8608 19.4399Z" fill="url(#paint1_linear_797_864)"/>
<path d="M42.5866 4.83049H39.2446L37.4114 1.52987C36.8893 0.600662 35.6749 0 34.3184 0L25.4163 0.00100727C24.0537 0.00100727 22.8393 0.60167 22.3213 1.53189L20.486 4.83049H12.0425V2.16682C12.0425 1.89953 11.9363 1.64318 11.7473 1.45418C11.5583 1.26518 11.3019 1.159 11.0346 1.159H5.03911C4.77182 1.159 4.51548 1.26518 4.32647 1.45418C4.13747 1.64318 4.03129 1.89953 4.03129 2.16682V4.93228C2.89404 5.16616 1.87217 5.7849 1.13787 6.68424C0.403557 7.58359 0.00169754 8.70856 0 9.86961V33.1775C0 35.8845 2.15069 38.0836 4.83049 38.1955L6.57302 41.4658C6.65887 41.6271 6.78693 41.7619 6.94349 41.856C7.10006 41.9501 7.27926 41.9999 7.46192 42H40.062C40.4349 42 40.7765 41.7944 40.9509 41.4658L42.6873 38.2066C45.4175 38.1501 47.6236 35.9208 47.6236 33.1775V9.86961C47.6228 8.53374 47.092 7.2528 46.1476 6.30801C45.2031 5.36323 43.9224 4.83183 42.5866 4.83049ZM15.1758 17.8687H19.2222C18.6802 19.217 18.401 20.6565 18.3998 22.1096C18.3998 24.0154 18.8745 25.8103 19.7009 27.3936H15.1768L15.1758 17.8687ZM20.4145 22.1096C20.4145 16.9012 24.6523 12.6633 29.8608 12.6633C35.0692 12.6633 39.3071 16.9012 39.3071 22.1096C39.3071 27.318 35.0692 31.5559 29.8608 31.5559C24.6523 31.5559 20.4145 27.318 20.4145 22.1096ZM40.5004 17.8707H45.61V27.3946H40.0206C40.876 25.7643 41.3228 23.9507 41.3227 22.1096C41.3227 20.611 41.0254 19.1839 40.5004 17.8707ZM45.61 9.86961V15.8551H39.4532C37.4053 12.7238 33.8729 10.6476 29.8608 10.6476C25.8486 10.6476 22.3182 12.7238 20.2693 15.8541H15.1758V9.87061C15.1758 8.73178 14.7817 7.6917 14.1418 6.84715H42.5866C43.3881 6.84768 44.1567 7.16626 44.7235 7.73293C45.2904 8.29961 45.6092 9.06807 45.61 9.86961ZM24.0839 2.51149C24.1988 2.3059 24.6886 2.01565 25.4173 2.01565L34.3194 2.01464C35.046 2.01464 35.5378 2.30791 35.6527 2.51149L36.9397 4.82949H22.7939L24.0839 2.51149ZM6.04895 3.17464H10.0288V4.83049H6.04895V3.17464ZM2.01766 33.1775V9.86961C2.01766 8.20267 3.37419 6.84614 5.04113 6.84614H10.1367C11.8036 6.84614 13.1601 8.20267 13.1601 9.86961V33.1775C13.1601 34.8445 11.8036 36.201 10.1367 36.201H5.04113C3.37318 36.201 2.01766 34.8455 2.01766 33.1775ZM39.4593 39.9844H8.06863L7.12732 38.2166H40.4006L39.4593 39.9844ZM42.5866 36.201H14.1418C14.8088 35.3339 15.1721 34.2715 15.1758 33.1775V29.4083H21.0312C22.1047 30.7105 23.453 31.7591 24.9793 32.479C26.5057 33.1989 28.1724 33.5723 29.86 33.5724C31.5477 33.5725 33.2144 33.1993 34.7409 32.4796C36.2673 31.7598 37.6157 30.7113 38.6893 29.4093H45.61V33.1775C45.61 34.8455 44.2545 36.201 42.5866 36.201Z" fill="url(#paint2_linear_797_864)"/>
<defs>
<linearGradient id="paint0_linear_797_864" x1="24.6697" y1="14.0359" x2="39.7718" y2="29.0612" gradientUnits="userSpaceOnUse">
<stop stop-color="#FFB929"/>
<stop offset="0.979258" stop-color="#9DDCF0"/>
</linearGradient>
<linearGradient id="paint1_linear_797_864" x1="29.869" y1="17.4243" x2="35.193" y2="22.7216" gradientUnits="userSpaceOnUse">
<stop stop-color="#FFB929"/>
<stop offset="0.979258" stop-color="#9DDCF0"/>
</linearGradient>
<linearGradient id="paint2_linear_797_864" x1="8.5" y1="-1.42881e-06" x2="47.5" y2="44" gradientUnits="userSpaceOnUse">
<stop stop-color="#FFB929"/>
<stop offset="0.979258" stop-color="#9DDCF0"/>
</linearGradient>
</defs>
</svg>
