<svg width="48" height="48" viewBox="0 0 48 48" fill="none" xmlns="http://www.w3.org/2000/svg">
<path d="M43.3534 25.2271V22.4509C43.3534 20.3165 41.617 18.5801 39.4826 18.5801H8.51588C6.3815 18.5801 4.64504 20.3165 4.64504 22.4509V25.2271L2.50756 27.3646C1.71004 28.1577 1.07777 29.1012 0.647352 30.1404C0.216932 31.1795 -0.0030865 32.2938 3.27065e-05 33.4186C3.27065e-05 33.8877 0.0395153 34.3615 0.116158 34.826L1.32076 42.0505C1.48827 43.0558 1.76366 44.04 2.14216 44.9862L3.34676 47.9985H13.685L14.3051 46.4501H33.6941L34.3143 47.9985H44.6525L45.8579 44.9862C46.236 44.0399 46.5114 43.0557 46.6793 42.0505L47.8839 34.826C47.9613 34.3607 48 33.8877 48 33.4186C48 31.1317 47.1097 28.9818 45.4925 27.3646L43.3534 25.2271ZM6.19338 22.4509C6.19338 21.1704 7.23541 20.1284 8.51588 20.1284H39.4826C40.7631 20.1284 41.8051 21.1704 41.8051 22.4509V38.0473C41.8051 38.4112 41.5078 38.7084 41.144 38.7084C41.021 38.7088 40.9004 38.6746 40.7959 38.6099C40.6914 38.5452 40.607 38.4525 40.5525 38.3423C39.8126 36.8618 39.2366 35.3051 38.8346 33.6996L38.7688 33.4371C39.7308 32.3194 40.2589 30.8931 40.2568 29.4184C40.2568 26.0036 37.4783 23.2251 34.0634 23.2251C30.6486 23.2251 27.8701 26.0036 27.8701 29.4184C27.8701 32.4075 30.0161 34.9352 32.8797 35.4926L32.5569 39.6839C32.4216 41.4441 32.6178 43.214 33.1352 44.9018H14.8633C15.3807 43.214 15.5769 41.4441 15.4416 39.6839L15.1188 35.4926C17.9824 34.9352 20.1284 32.4075 20.1284 29.4184C20.1284 26.0036 17.3499 23.2251 13.9351 23.2251C10.5202 23.2251 7.74171 26.0036 7.74171 29.4184C7.74171 30.9087 8.2697 32.3169 9.22966 33.4371L9.16386 33.7004C8.76179 35.3055 8.18575 36.8621 7.44598 38.3423C7.39159 38.4526 7.30731 38.5454 7.20274 38.6101C7.09816 38.6749 6.97751 38.7089 6.85452 38.7084C6.6793 38.708 6.51137 38.6383 6.38747 38.5144C6.26357 38.3905 6.19379 38.2225 6.19338 38.0473V22.4509ZM33.4418 30.8344C33.1663 30.7141 32.932 30.516 32.7674 30.2645C32.6028 30.013 32.5151 29.719 32.5151 29.4184C32.5151 28.5645 33.2095 27.8701 34.0634 27.8701C34.9173 27.8701 35.6118 28.5645 35.6118 29.4184L35.6102 29.4316C35.1578 29.4558 34.7195 29.598 34.3391 29.8441C33.9587 30.0902 33.6493 30.4316 33.4418 30.8344ZM34.0634 26.3218C32.3556 26.3218 30.9668 27.7106 30.9668 29.4184C30.9672 30.0734 31.1762 30.7112 31.5634 31.2395C31.9506 31.7677 32.496 32.1589 33.1205 32.3564L32.9989 33.9365C30.9404 33.4518 29.4184 31.5993 29.4184 29.4184C29.4184 26.8567 31.5017 24.7734 34.0634 24.7734C36.6251 24.7734 38.7084 26.8567 38.7084 29.4184C38.7084 30.116 38.5505 30.7887 38.2594 31.4018L38.254 31.3794C38.0915 30.7348 37.6863 30.1778 37.1229 29.8249C37.1407 29.6909 37.1601 29.5562 37.1601 29.4184C37.1601 27.7106 35.7712 26.3218 34.0634 26.3218ZM9.74449 31.3786L9.73829 31.4026C9.44347 30.7827 9.29036 30.1049 9.29005 29.4184C9.29005 26.8567 11.3733 24.7734 13.9351 24.7734C16.4968 24.7734 18.5801 26.8567 18.5801 29.4184C18.5801 31.5993 17.0573 33.4526 14.9995 33.9365L14.878 32.3564C15.5025 32.1589 16.0479 31.7677 16.4351 31.2395C16.8223 30.7112 17.0313 30.0734 17.0317 29.4184C17.0317 27.7106 15.6429 26.3218 13.9351 26.3218C12.2272 26.3218 10.8384 27.7106 10.8384 29.4184C10.8384 29.5562 10.8577 29.6902 10.8755 29.8249C10.3124 30.1776 9.90715 30.7343 9.74449 31.3786ZM12.3883 29.4316L12.3867 29.4184C12.3867 28.5645 13.0812 27.8701 13.9351 27.8701C14.789 27.8701 15.4834 28.5645 15.4834 29.4184C15.4834 30.0517 15.1033 30.5952 14.5559 30.8344C14.3487 30.4316 14.0395 30.0901 13.6591 29.844C13.2788 29.5978 12.8406 29.4557 12.3883 29.4316ZM13.0316 45.4638L12.6368 46.4501H4.39499L3.57979 44.4117C3.24245 43.5689 2.99716 42.6921 2.8482 41.7966L1.64359 34.5721C1.58022 34.1908 1.54837 33.805 1.54837 33.4186C1.5458 32.4972 1.726 31.5844 2.07855 30.7332C2.4311 29.8819 2.94899 29.109 3.60224 28.4592L4.64504 27.4164V38.0465C4.64545 38.6325 4.87834 39.1943 5.29259 39.6087C5.70683 40.0231 6.26858 40.2562 6.85452 40.2568C7.26517 40.2581 7.66798 40.1443 8.0173 39.9284C8.36662 39.7125 8.64849 39.403 8.83097 39.0351C9.62115 37.4541 10.2361 35.7913 10.665 34.0766L11.2456 31.7549C11.3019 31.5297 11.4318 31.3299 11.6147 31.1871C11.7977 31.0443 12.0231 30.9667 12.2551 30.9668C12.5168 30.968 12.7685 31.0675 12.9604 31.2453C13.1524 31.4232 13.2706 31.6667 13.2917 31.9275L13.8979 39.8031C14.0466 41.7315 13.7502 43.6682 13.0316 45.4638ZM46.3549 34.5721L45.1503 41.7966C45.0009 42.692 44.7557 43.5688 44.4187 44.4117L43.6035 46.4501H35.3617L34.9669 45.4638C34.2469 43.6686 33.9505 41.7315 34.1006 39.8031L34.7068 31.9267C34.7281 31.666 34.8464 31.4228 35.0383 31.2451C35.2302 31.0673 35.4818 30.968 35.7434 30.9668C36.221 30.9668 36.636 31.2911 36.7529 31.7556L37.3335 34.0758C37.7626 35.7907 38.3775 37.4537 39.1675 39.0351C39.3499 39.4031 39.6317 39.7127 39.981 39.9286C40.3304 40.1445 40.7333 40.2582 41.144 40.2568C41.7298 40.2562 42.2914 40.0232 42.7056 39.609C43.1198 39.1947 43.3528 38.6331 43.3534 38.0473V27.4164L44.3962 28.4592C45.0495 29.109 45.5674 29.8819 45.9199 30.7332C46.2725 31.5844 46.4527 32.4972 46.4501 33.4186C46.4501 33.8033 46.4184 34.1912 46.3549 34.5721Z" fill="url(#paint0_linear_797_918)"/>
<path d="M17.0317 43.3534H23.225V37.1601H17.0317V43.3534ZM18.58 38.7084H21.6767V41.8051H18.58V38.7084ZM24.7734 43.3534H30.9667V37.1601H24.7734V43.3534ZM26.3217 38.7084H29.4184V41.8051H26.3217V38.7084ZM27.87 21.6767H20.1284V26.3217H27.87V21.6767ZM26.3217 24.7734H21.6767V23.225H26.3217V24.7734ZM21.6767 27.8701H23.225V29.4184H21.6767V27.8701ZM24.7734 27.8701H26.3217V29.4184H24.7734V27.8701ZM24.7734 30.9667H26.3217V32.5151H24.7734V30.9667ZM21.6767 30.9667H23.225V32.5151H21.6767V30.9667ZM21.6767 34.0634H23.225V35.6117H21.6767V34.0634ZM24.7734 34.0634H26.3217V35.6117H24.7734V34.0634ZM47.9984 1.54834V0H40.2567V1.54834H43.3534V6.19334H42.5792C42.1005 6.19488 41.634 6.34452 41.2436 6.62174C40.8533 6.89895 40.5583 7.29016 40.3992 7.74168H33.7677L32.2193 4.64501H15.7791L14.2308 7.74168H7.59923C7.44008 7.29016 7.1451 6.89895 6.75478 6.62174C6.36446 6.34452 5.89792 6.19488 5.41918 6.19334H4.64501V1.54834H7.74168V0H0V1.54834H3.09667V6.19334H2.3225C1.04203 6.19334 0 7.23537 0 8.51585V11.6125C0 12.893 1.04203 13.935 2.3225 13.935H5.41918C5.89792 13.9335 6.36446 13.7838 6.75478 13.5066C7.1451 13.2294 7.44008 12.8382 7.59923 12.3867H18.58V15.4834C18.58 16.3373 19.2745 17.0317 20.1284 17.0317H27.87C28.724 17.0317 29.4184 16.3373 29.4184 15.4834V12.3867H40.3992C40.5583 12.8382 40.8533 13.2294 41.2436 13.5066C41.634 13.7838 42.1005 13.9335 42.5792 13.935H45.6759C46.9564 13.935 47.9984 12.893 47.9984 11.6125V8.51585C47.9984 7.23537 46.9564 6.19334 45.6759 6.19334H44.9017V1.54834H47.9984ZM6.19334 11.6125C6.19334 11.8178 6.11178 12.0148 5.9666 12.1599C5.82141 12.3051 5.6245 12.3867 5.41918 12.3867H2.3225C2.11718 12.3867 1.92027 12.3051 1.77508 12.1599C1.6299 12.0148 1.54834 11.8178 1.54834 11.6125V8.51585C1.54834 8.31053 1.6299 8.11361 1.77508 7.96843C1.92027 7.82324 2.11718 7.74168 2.3225 7.74168H5.41918C5.6245 7.74168 5.82141 7.82324 5.9666 7.96843C6.11178 8.11361 6.19334 8.31053 6.19334 8.51585V11.6125ZM20.1284 12.3867H22.2806C21.909 12.7985 21.6767 13.3381 21.6767 13.935C21.6767 14.5319 21.9097 15.0715 22.2806 15.4834H20.1284V12.3867ZM23.9992 14.7092C23.7939 14.7092 23.597 14.6276 23.4518 14.4824C23.3066 14.3373 23.225 14.1403 23.225 13.935C23.225 13.7297 23.3066 13.5328 23.4518 13.3876C23.597 13.2424 23.7939 13.1609 23.9992 13.1609C24.2045 13.1609 24.4014 13.2424 24.5466 13.3876C24.6918 13.5328 24.7734 13.7297 24.7734 13.935C24.7734 14.1403 24.6918 14.3373 24.5466 14.4824C24.4014 14.6276 24.2045 14.7092 23.9992 14.7092ZM27.8716 15.4834H25.7179C26.0895 15.0715 26.3217 14.5319 26.3217 13.935C26.3217 13.3381 26.0887 12.7985 25.7179 12.3867H27.87L27.8716 15.4834ZM27.87 10.8384H7.74168V9.29002H15.1876L16.736 6.19334H31.2625L32.8108 9.29002H40.2567V10.8384H27.87ZM46.4501 8.51585V11.6125C46.4501 11.8178 46.3685 12.0148 46.2233 12.1599C46.0781 12.3051 45.8812 12.3867 45.6759 12.3867H42.5792C42.3739 12.3867 42.177 12.3051 42.0318 12.1599C41.8866 12.0148 41.8051 11.8178 41.8051 11.6125V8.51585C41.8051 8.31053 41.8866 8.11361 42.0318 7.96843C42.177 7.82324 42.3739 7.74168 42.5792 7.74168H45.6759C45.8812 7.74168 46.0781 7.82324 46.2233 7.96843C46.3685 8.11361 46.4501 8.31053 46.4501 8.51585Z" fill="url(#paint1_linear_797_918)"/>
<path d="M18.5801 7.7417H20.1284V9.29004H18.5801V7.7417ZM27.8701 7.7417H29.4184V9.29004H27.8701V7.7417ZM24.7734 7.7417H26.3218V9.29004H24.7734V7.7417ZM21.6768 7.7417H23.2251V9.29004H21.6768V7.7417Z" fill="url(#paint2_linear_797_918)"/>
<defs>
<linearGradient id="paint0_linear_797_918" x1="28.5" y1="51.0639" x2="22.4445" y2="12.5003" gradientUnits="userSpaceOnUse">
<stop/>
<stop offset="0.0001" stop-color="#C7D6CE"/>
<stop offset="1" stop-color="#EFD0AD"/>
</linearGradient>
<linearGradient id="paint1_linear_797_918" x1="28.4991" y1="47.871" x2="15.7084" y2="-7.40106" gradientUnits="userSpaceOnUse">
<stop/>
<stop offset="0.0001" stop-color="#C7D6CE"/>
<stop offset="1" stop-color="#EFD0AD"/>
</linearGradient>
<linearGradient id="paint2_linear_797_918" x1="25.0154" y1="9.45138" x2="24.9393" y2="7.37445" gradientUnits="userSpaceOnUse">
<stop/>
<stop offset="0.0001" stop-color="#C7D6CE"/>
<stop offset="1" stop-color="#EFD0AD"/>
</linearGradient>
</defs>
</svg>
