<svg width="66" height="49" viewBox="0 0 66 49" fill="none" xmlns="http://www.w3.org/2000/svg">
<path d="M32.9302 45.4272C31.4707 45.4272 30.2848 44.2414 30.2848 42.7667C30.2848 39.2851 35.5908 39.2851 35.5908 42.7667C35.5908 44.2414 34.4049 45.4272 32.9302 45.4272ZM64.9938 18.1222H41.9153V23.1849C41.9153 23.6714 41.52 24.0667 41.0335 24.0667H33.812V30.2392H40.7142C41.2007 30.2392 41.596 30.6193 41.596 31.1058V42.7667C41.596 43.9525 39.8933 43.6485 39.1027 43.6485C38.677 46.6739 36.0773 49 32.9302 49C29.7983 49 27.1986 46.6739 26.7729 43.6485C25.9823 43.6485 24.2796 43.9525 24.2796 42.7667V31.1058C24.2796 30.6193 24.6748 30.2392 25.1613 30.2392H32.0636V24.0667H24.8421C24.3556 24.0667 23.9603 23.6714 23.9603 23.1849V18.1222H0.881787C0.395284 18.1222 0 17.727 0 17.2405V12.5123C0 12.0258 0.395284 11.6305 0.881787 11.6305H10.2014V1.74837H5.09308C3.95284 1.74837 3.95284 0 5.09308 0H17.058C18.1983 0 18.1983 1.74837 17.058 1.74837H11.9497V11.6305H23.9603V6.99348C23.9603 6.50698 24.3556 6.1117 24.8421 6.1117H41.0335C41.52 6.1117 41.9153 6.50698 41.9153 6.99348V11.6305H53.9258V1.74837H48.8176C47.6773 1.74837 47.6773 0 48.8176 0H60.7825C61.9227 0 61.9227 1.74837 60.7825 1.74837H55.6742V11.6305H64.9938C65.4803 11.6305 65.8756 12.0258 65.8756 12.5123V17.2405C65.8756 17.727 65.4803 18.1222 64.9938 18.1222ZM41.9153 16.3587H64.1272V13.394H41.9153V16.3587ZM1.74837 16.3587H23.9603V13.394H1.74837V16.3587ZM25.7087 22.3183H40.1669V7.87527H25.7087V22.3183ZM37.1719 20.2051H28.7037C28.2172 20.2051 27.8219 19.8098 27.8219 19.3233V10.8551C27.8219 10.3686 28.2172 9.97332 28.7037 9.97332H37.1719C37.6584 9.97332 38.0537 10.3686 38.0537 10.8551V19.3233C38.0537 19.8098 37.6584 20.2051 37.1719 20.2051ZM29.5855 18.4567H36.2901V11.7369H29.5855V18.4567ZM39.1027 41.9001H39.8325V31.9876H26.0431V41.9001H26.7729C27.2594 38.6922 30.1024 36.2597 33.5231 36.5638C36.3813 36.8374 38.677 39.0875 39.1027 41.9001ZM38.9355 41.0639C38.9355 41.1095 38.9507 41.1551 38.9659 41.2007L38.9355 41.0639ZM32.9302 38.2969C30.4673 38.2969 28.4604 40.3038 28.4604 42.7667C28.4604 45.2448 30.4673 47.2516 32.9302 47.2516C35.5756 47.2516 37.6584 44.9103 37.3847 42.3106C37.2935 41.3832 36.8982 40.4406 36.2445 39.7716C35.3627 38.8594 34.2225 38.2969 32.9302 38.2969ZM32.9302 41.8697C31.7747 41.8697 31.7747 43.6789 32.9302 43.6789C34.1008 43.6789 34.1008 41.8697 32.9302 41.8697Z" fill="url(#paint0_linear_797_945)"/>
<defs>
<linearGradient id="paint0_linear_797_945" x1="32.9378" y1="0" x2="32.9378" y2="49" gradientUnits="userSpaceOnUse">
<stop stop-color="#EFD0AD"/>
<stop offset="1" stop-color="#C7D6CE"/>
</linearGradient>
</defs>
</svg>
