<svg width="92" height="53" viewBox="0 0 92 53" fill="none" xmlns="http://www.w3.org/2000/svg">
<path d="M90.4667 1.53333H79.7333C79.7333 1.12667 79.5718 0.736659 79.2842 0.449103C78.9967 0.161547 78.6067 0 78.2 0C77.7933 0 77.4033 0.161547 77.1158 0.449103C76.8282 0.736659 76.6667 1.12667 76.6667 1.53333H65.9333C65.5267 1.53333 65.1367 1.69488 64.8491 1.98244C64.5615 2.26999 64.4 2.66 64.4 3.06667C64.4 3.47333 64.5615 3.86334 64.8491 4.1509C65.1367 4.43845 65.5267 4.6 65.9333 4.6H76.6667V7.66667H73.6C73.0641 7.66828 72.538 7.8108 72.0746 8.07993C71.6111 8.34906 71.2266 8.73534 70.9596 9.2H57.3758C56.4609 6.93218 54.889 4.98957 52.862 3.62159C50.835 2.25361 48.4454 1.5227 46 1.5227C43.5546 1.5227 41.165 2.25361 39.138 3.62159C37.111 4.98957 35.5391 6.93218 34.6242 9.2H21.0404C20.7734 8.73534 20.3889 8.34906 19.9254 8.07993C19.462 7.8108 18.9359 7.66828 18.4 7.66667H15.3333V4.6H26.0667C26.4733 4.6 26.8633 4.43845 27.1509 4.1509C27.4385 3.86334 27.6 3.47333 27.6 3.06667C27.6 2.66 27.4385 2.26999 27.1509 1.98244C26.8633 1.69488 26.4733 1.53333 26.0667 1.53333H15.3333C15.3333 1.12667 15.1718 0.736659 14.8842 0.449103C14.5967 0.161547 14.2067 0 13.8 0C13.3933 0 13.0033 0.161547 12.7158 0.449103C12.4282 0.736659 12.2667 1.12667 12.2667 1.53333H1.53333C1.12667 1.53333 0.736659 1.69488 0.449103 1.98244C0.161547 2.26999 0 2.66 0 3.06667C0 3.47333 0.161547 3.86334 0.449103 4.1509C0.736659 4.43845 1.12667 4.6 1.53333 4.6H12.2667V7.66667H9.2C8.38667 7.66667 7.60665 7.98976 7.03154 8.56487C6.45643 9.13999 6.13333 9.92 6.13333 10.7333V16.8667C6.13333 17.68 6.45643 18.46 7.03154 19.0351C7.60665 19.6102 8.38667 19.9333 9.2 19.9333H18.4C18.8482 19.9317 19.2906 19.8312 19.6956 19.6391C20.1005 19.4469 20.4582 19.1678 20.7429 18.8217L24.2497 20.171L15.4867 48.1283C15.339 48.5877 15.3018 49.0755 15.3782 49.5521C15.4546 50.0286 15.6424 50.4804 15.9263 50.8706C16.2102 51.2609 16.5821 51.5787 17.012 51.7981C17.4418 52.0175 17.9174 52.1324 18.4 52.1333H21.3747C22.0045 52.1333 22.6191 51.9393 23.1349 51.5777C23.6506 51.2161 24.0425 50.7045 24.2573 50.1124L33.81 23.8479L38.7611 25.7508L40.4524 29.1333H38.3333C37.1133 29.1333 35.9433 29.618 35.0806 30.4806C34.218 31.3433 33.7333 32.5133 33.7333 33.7333V46C33.7333 47.22 34.218 48.39 35.0806 49.2527C35.9433 50.1154 37.1133 50.6 38.3333 50.6H53.6667C54.8867 50.6 56.0567 50.1154 56.9194 49.2527C57.782 48.39 58.2667 47.22 58.2667 46V33.7333C58.2667 32.5133 57.782 31.3433 56.9194 30.4806C56.0567 29.618 54.8867 29.1333 53.6667 29.1333H51.5476L53.2343 25.7508L58.1854 23.8464L67.7457 50.1262C67.9612 50.7165 68.3535 51.226 68.869 51.5852C69.3847 51.9444 69.9985 52.1358 70.6269 52.1333H73.6C74.0847 52.132 74.5622 52.0162 74.9936 51.7953C75.425 51.5744 75.7981 51.2547 76.0825 50.8622C76.3631 50.4758 76.5489 50.0288 76.6248 49.5573C76.7007 49.0859 76.6646 48.6031 76.5195 48.1482L67.7488 20.1695L71.2555 18.8217C71.5405 19.168 71.8983 19.4472 72.3036 19.6394C72.7088 19.8316 73.1515 19.9319 73.6 19.9333H82.8C83.6133 19.9333 84.3933 19.6102 84.9685 19.0351C85.5436 18.46 85.8667 17.68 85.8667 16.8667V10.7333C85.8667 9.92 85.5436 9.13999 84.9685 8.56487C84.3933 7.98976 83.6133 7.66667 82.8 7.66667H79.7333V4.6H90.4667C90.8733 4.6 91.2633 4.43845 91.5509 4.1509C91.8385 3.86334 92 3.47333 92 3.06667C92 2.66 91.8385 2.26999 91.5509 1.98244C91.2633 1.69488 90.8733 1.53333 90.4667 1.53333ZM18.4 16.8667H9.2V10.7333H18.4V16.8667ZM21.3747 49.0667H18.4L27.1124 21.2735L30.9457 22.7455L21.3747 49.0667ZM53.6667 32.2C54.0733 32.2 54.4633 32.3615 54.7509 32.6491C55.0385 32.9367 55.2 33.3267 55.2 33.7333V46C55.2 46.4067 55.0385 46.7967 54.7509 47.0842C54.4633 47.3718 54.0733 47.5333 53.6667 47.5333H38.3333C37.9267 47.5333 37.5367 47.3718 37.2491 47.0842C36.9615 46.7967 36.8 46.4067 36.8 46V33.7333C36.8 33.3267 36.9615 32.9367 37.2491 32.6491C37.5367 32.3615 37.9267 32.2 38.3333 32.2H53.6667ZM42.3476 26.0667H49.6524L48.1191 29.1333H43.8809L42.3476 26.0667ZM73.6 49.0667H70.6253L61.0543 22.7455L64.8876 21.2735L73.6 49.0667ZM70.5333 15.8133L51.8481 23H40.1519L21.4667 15.8133V12.2667H35.7113C36.0419 12.2668 36.3636 12.1602 36.6286 11.9626C36.8936 11.765 37.0876 11.4872 37.1818 11.1703C37.7478 9.27156 38.9116 7.60623 40.5002 6.4221C42.0887 5.23798 44.0171 4.59833 45.9985 4.59833C47.9798 4.59833 49.9082 5.23798 51.4968 6.4221C53.0853 7.60623 54.2492 9.27156 54.8151 11.1703C54.9095 11.4877 55.104 11.7659 55.3696 11.9635C55.6352 12.1611 55.9576 12.2675 56.2887 12.2667H70.5333V15.8133ZM82.8 10.7333V16.8667H73.6V10.7333H82.8Z" fill="url(#paint0_linear_797_951)"/>
<path d="M45.9999 44.4667C46.9097 44.4667 47.7991 44.1969 48.5555 43.6915C49.312 43.186 49.9016 42.4676 50.2497 41.6271C50.5979 40.7865 50.689 39.8616 50.5115 38.9693C50.334 38.077 49.8959 37.2574 49.2526 36.614C48.6093 35.9707 47.7896 35.5326 46.8973 35.3551C46.005 35.1776 45.0801 35.2687 44.2396 35.6169C43.399 35.965 42.6806 36.5546 42.1751 37.3111C41.6697 38.0676 41.3999 38.9569 41.3999 39.8667C41.3999 41.0867 41.8845 42.2567 42.7472 43.1194C43.6099 43.9821 44.7799 44.4667 45.9999 44.4667ZM45.9999 38.3334C46.3032 38.3334 46.5996 38.4233 46.8518 38.5918C47.1039 38.7603 47.3005 38.9998 47.4165 39.2799C47.5326 39.5601 47.5629 39.8684 47.5038 40.1659C47.4446 40.4633 47.2986 40.7365 47.0841 40.951C46.8697 41.1654 46.5965 41.3114 46.299 41.3706C46.0016 41.4298 45.6933 41.3994 45.4131 41.2833C45.1329 41.1673 44.8935 40.9708 44.725 40.7186C44.5565 40.4664 44.4666 40.17 44.4666 39.8667C44.4666 39.4601 44.6281 39.0701 44.9157 38.7825C45.2032 38.4949 45.5932 38.3334 45.9999 38.3334Z" fill="url(#paint1_linear_797_951)"/>
<defs>
<linearGradient id="paint0_linear_797_951" x1="4.91824" y1="-1.47547" x2="73.7736" y2="52.1334" gradientUnits="userSpaceOnUse">
<stop stop-color="#EFD0AD"/>
<stop offset="1" stop-color="#C7D6CE"/>
</linearGradient>
<linearGradient id="paint1_linear_797_951" x1="41.8917" y1="35.0063" x2="51.1491" y2="39.0906" gradientUnits="userSpaceOnUse">
<stop stop-color="#EFD0AD"/>
<stop offset="1" stop-color="#C7D6CE"/>
</linearGradient>
</defs>
</svg>
