<svg width="238" height="78" viewBox="0 0 238 78" fill="none" xmlns="http://www.w3.org/2000/svg">
<path d="M14.21 49.5698C15.4436 49.5687 16.672 49.7282 17.8645 50.044C18.1755 50.1279 18.4407 50.3315 18.602 50.6104C18.7632 50.8893 18.8075 51.2207 18.725 51.5321C18.6425 51.8435 18.4401 52.1095 18.1619 52.272C17.8838 52.4345 17.5526 52.4803 17.2408 52.3992C14.739 51.7356 12.0883 51.9156 9.69921 52.9112C7.31012 53.9069 5.31607 55.6626 4.02598 57.9065C2.73589 60.1503 2.22178 62.7569 2.5633 65.3225C2.90482 67.8882 4.0829 70.2696 5.91503 72.0978C7.74716 73.926 10.1311 75.0989 12.6974 75.435C15.2638 75.771 17.8693 75.2513 20.1104 73.9564C22.3514 72.6615 24.1029 70.6637 25.0934 68.2725C26.0839 65.8813 26.2582 63.2301 25.5893 60.7298C25.5413 60.5731 25.5252 60.4084 25.5423 60.2453C25.5593 60.0823 25.609 59.9244 25.6884 59.781C25.7678 59.6376 25.8753 59.5117 26.0045 59.4108C26.1337 59.3099 26.2818 59.2361 26.4402 59.1937C26.5985 59.1513 26.7637 59.1413 26.926 59.1642C27.0883 59.1872 27.2443 59.2425 27.3848 59.3271C27.5252 59.4117 27.6471 59.5236 27.7433 59.6564C27.8394 59.7891 27.9079 59.9399 27.9445 60.0996C28.7145 62.9683 28.5666 66.0061 27.5216 68.7864C26.4765 71.5668 24.5869 73.9499 22.1179 75.6011C19.649 77.2524 16.7248 78.0888 13.7561 77.9928C10.7874 77.8969 7.92337 76.8735 5.56619 75.0663C3.209 73.2591 1.47711 70.7589 0.613758 67.9169C-0.249593 65.0749 -0.201033 62.0339 0.752618 59.2209C1.70627 56.4079 3.5171 53.9643 5.93079 52.2333C8.34447 50.5023 11.2398 49.5709 14.21 49.5698ZM51.5104 59.2372C51.8226 59.3209 52.0888 59.5252 52.2505 59.805C52.4122 60.0849 52.4562 60.4175 52.3728 60.7298C51.7039 63.2301 51.8782 65.8813 52.8688 68.2725C53.8593 70.6637 55.6108 72.6615 57.8518 73.9564C60.0929 75.2513 62.6984 75.771 65.2648 75.435C67.8311 75.0989 70.215 73.926 72.0472 72.0978C73.8793 70.2696 75.0574 67.8882 75.3989 65.3225C75.7404 62.7569 75.2263 60.1503 73.9362 57.9065C72.6461 55.6626 70.6521 53.9069 68.263 52.9112C65.8739 51.9156 63.2231 51.7356 60.7214 52.3992C60.4091 52.4823 60.0765 52.438 59.7969 52.2759C59.5173 52.1139 59.3135 51.8474 59.2303 51.5351C59.1472 51.2228 59.1915 50.8902 59.3536 50.6106C59.5156 50.331 59.7821 50.1272 60.0944 50.044C63.1115 49.2435 66.3084 49.4601 69.1898 50.6604C72.0713 51.8607 74.4765 53.9777 76.033 56.6835C77.5895 59.3892 78.2103 62.5327 77.7993 65.627C77.3883 68.7213 75.9684 71.5937 73.7596 73.7993C71.5508 76.0049 68.6763 77.4206 65.5814 77.8271C62.4865 78.2336 59.344 77.6082 56.6405 76.0478C53.937 74.4874 51.8235 72.0791 50.6274 69.1959C49.4313 66.3127 49.2193 63.1155 50.0242 60.0996C50.1088 59.7893 50.3122 59.5249 50.5903 59.3634C50.8685 59.202 51.199 59.1567 51.5104 59.2372ZM26.4485 18.7874C26.1364 18.7036 25.8702 18.4994 25.7085 18.2195C25.5467 17.9396 25.5027 17.607 25.5861 17.2947C26.255 14.7944 26.0807 12.1433 25.0902 9.75206C24.0996 7.36084 22.3482 5.36304 20.1071 4.06814C17.8661 2.77325 15.2605 2.25355 12.6942 2.58958C10.1278 2.9256 7.74391 4.09858 5.91178 5.92679C4.07965 7.755 2.90157 10.1364 2.56005 12.702C2.21853 15.2676 2.73264 17.8743 4.02273 20.1181C5.31282 22.3619 7.30687 24.1177 9.69596 25.1133C12.085 26.109 14.7358 26.289 17.2375 25.6254C17.5499 25.5422 17.8824 25.5866 18.162 25.7486C18.4416 25.9107 18.6454 26.1772 18.7286 26.4895C18.8117 26.8018 18.7674 27.1343 18.6053 27.414C18.4433 27.6936 18.1768 27.8974 17.8645 27.9805C14.8474 28.7811 11.6506 28.5644 8.76911 27.3641C5.88764 26.1638 3.48239 24.0468 1.92592 21.3411C0.369452 18.6354 -0.251364 15.4919 0.159635 12.3976C0.570635 9.3033 1.99051 6.43087 4.19933 4.22526C6.40815 2.01965 9.28263 0.603958 12.3775 0.197454C15.4724 -0.20905 18.615 0.416332 21.3184 1.97673C24.0219 3.53713 26.1354 5.94545 27.3315 8.82865C28.5277 11.7119 28.7397 14.909 27.9347 17.9249C27.8505 18.2354 27.6472 18.5002 27.3689 18.6617C27.0907 18.8232 26.7599 18.8683 26.4485 18.7874ZM63.7489 28.4548C62.5154 28.4558 61.2869 28.2964 60.0944 27.9805C59.7834 27.8967 59.5182 27.693 59.357 27.4142C59.1957 27.1353 59.1514 26.8039 59.2339 26.4925C59.3164 26.1811 59.5189 25.915 59.797 25.7525C60.0752 25.59 60.4064 25.5443 60.7181 25.6254C63.2199 26.289 65.8706 26.109 68.2597 25.1133C70.6488 24.1177 72.6429 22.3619 73.933 20.1181C75.223 17.8743 75.7371 15.2676 75.3956 12.702C75.0541 10.1364 73.876 7.755 72.0439 5.92679C70.2118 4.09858 67.8279 2.9256 65.2615 2.58958C62.6952 2.25355 60.0896 2.77325 57.8486 4.06814C55.6075 5.36304 53.8561 7.36084 52.8655 9.75206C51.875 12.1433 51.7007 14.7944 52.3696 17.2947C52.4177 17.4514 52.4337 17.6162 52.4167 17.7792C52.3996 17.9422 52.3499 18.1001 52.2705 18.2435C52.1911 18.3869 52.0836 18.5128 51.9544 18.6137C51.8253 18.7146 51.6771 18.7885 51.5188 18.8308C51.3604 18.8732 51.1952 18.8832 51.0329 18.8603C50.8706 18.8374 50.7146 18.782 50.5742 18.6974C50.4338 18.6129 50.3118 18.5009 50.2157 18.3682C50.1195 18.2354 50.0511 18.0847 50.0145 17.9249C49.2444 15.0562 49.3923 12.0184 50.4373 9.23811C51.4824 6.45779 53.3721 4.07465 55.841 2.42341C58.31 0.772175 61.2341 -0.0642063 64.2028 0.0317274C67.1715 0.127661 70.0356 1.15109 72.3928 2.95829C74.7499 4.76548 76.4818 7.26565 77.3452 10.1076C78.2085 12.9496 78.16 15.9907 77.2063 18.8036C76.2527 21.6166 74.4418 24.0602 72.0281 25.7912C69.6145 27.5222 66.7192 28.4537 63.7489 28.4548Z" fill="white"/>
<path d="M58.3076 12.2944C58.6354 11.3757 59.1904 10.5549 59.9207 9.90839C60.6511 9.26185 61.5331 8.81058 62.4848 8.59658C63.4365 8.38258 64.4268 8.41281 65.3636 8.68445C66.3005 8.95609 67.1534 9.46032 67.8429 10.1502C68.5325 10.8401 69.0364 11.6932 69.3076 12.6301C69.5788 13.5671 69.6086 14.5574 69.3942 15.509C69.1798 16.4606 68.7281 17.3424 68.0813 18.0725C67.4344 18.8026 66.6134 19.3572 65.6945 19.6846C62.1428 21.3705 58.9099 23.6587 56.1392 26.4479C54.4702 28.0815 53.152 30.0384 52.265 32.1988C51.378 34.3593 50.941 36.6779 50.9807 39.013C50.9415 41.3475 51.3787 43.6655 52.2657 45.8254C53.1526 47.9852 54.4706 49.9415 56.1392 51.5747C58.9126 54.3632 62.1462 56.6522 65.6978 58.3413C66.6165 58.6691 67.4373 59.2241 68.0838 59.9544C68.7303 60.6848 69.1816 61.5669 69.3956 62.5185C69.6096 63.4702 69.5794 64.4605 69.3077 65.3974C69.0361 66.3342 68.5319 67.1871 67.842 67.8767C67.1521 68.5662 66.299 69.0701 65.362 69.3413C64.4251 69.6125 63.4347 69.6423 62.4832 69.4279C61.5316 69.2135 60.6498 68.7619 59.9197 68.115C59.1896 67.4681 58.635 66.6471 58.3076 65.7283C56.6221 62.1763 54.3338 58.9434 51.5443 56.1729C49.9106 54.504 47.9538 53.1857 45.7934 52.2987C43.6329 51.4118 41.3143 50.9748 38.9792 51.0144C36.6447 50.9752 34.3267 51.4124 32.1668 52.2994C30.007 53.1863 28.0507 54.5044 26.4175 56.1729C23.6287 58.946 21.3396 62.1797 19.6509 65.7315C19.3232 66.6505 18.7683 67.4716 18.0378 68.1184C17.3074 68.7651 16.4251 69.2166 15.4733 69.4306C14.5214 69.6447 13.5308 69.6144 12.5938 69.3426C11.6568 69.0708 10.8037 68.5663 10.1141 67.8762C9.42456 67.186 8.92083 66.3325 8.64986 65.3952C8.37888 64.458 8.34947 63.4674 8.56437 62.5157C8.77926 61.564 9.23148 60.6822 9.87891 59.9523C10.5263 59.2224 11.3479 58.6682 12.2672 58.3413C15.8178 56.656 19.0497 54.3683 21.8193 51.5796C23.4887 49.946 24.8073 47.989 25.6943 45.8282C26.5813 43.6674 27.018 41.3484 26.9778 39.013C27.0174 36.6784 26.5803 34.3603 25.6933 32.2004C24.8064 30.0405 23.4881 28.0842 21.8193 26.4512C19.0472 23.6627 15.8146 21.3736 12.2639 19.6846C11.3455 19.3566 10.525 18.8017 9.87875 18.0714C9.23245 17.3411 8.78135 16.4592 8.56742 15.5078C8.35348 14.5564 8.38365 13.5663 8.65513 12.6296C8.92661 11.693 9.43057 10.8402 10.1201 10.1506C10.8097 9.46105 11.6625 8.95709 12.5991 8.68561C13.5358 8.41413 14.5259 8.38396 15.4773 8.5979C16.4288 8.81183 17.3106 9.26293 18.0409 9.90923C18.7712 10.5555 19.3262 11.376 19.6542 12.2944C21.3396 15.8463 23.6279 19.0793 26.4175 21.8497C28.0504 23.5189 30.0066 24.8375 32.1665 25.725C34.3263 26.6126 36.6445 27.0503 38.9792 27.0115C41.3138 27.0507 43.6318 26.6135 45.7916 25.7265C47.9515 24.8396 49.9078 23.5216 51.541 21.853C54.3298 19.0799 56.6189 15.8463 58.3076 12.2944ZM63.7503 10.8976C63.0886 10.8976 62.4417 11.0938 61.8914 11.4615C61.3412 11.8291 60.9124 12.3517 60.6591 12.9631C60.4059 13.5744 60.3396 14.2472 60.4687 14.8962C60.5978 15.5453 60.9165 16.1415 61.3844 16.6094C61.8524 17.0773 62.4485 17.396 63.0976 17.5251C63.7466 17.6542 64.4194 17.5879 65.0308 17.3347C65.6421 17.0815 66.1647 16.6526 66.5324 16.1024C66.9 15.5521 67.0962 14.9052 67.0962 14.2435C67.0954 13.3561 66.7424 12.5053 66.1147 11.8779C65.4871 11.2506 64.6377 10.898 63.7503 10.8976ZM63.7503 67.1284C64.4121 67.1284 65.059 66.9321 65.6092 66.5645C66.1595 66.1968 66.5883 65.6742 66.8415 65.0629C67.0948 64.4515 67.1611 63.7787 67.032 63.1297C66.9029 62.4806 66.5842 61.8845 66.1163 61.4165C65.6483 60.9486 65.0521 60.6299 64.4031 60.5008C63.754 60.3717 63.0813 60.438 62.4699 60.6912C61.8585 60.9445 61.336 61.3733 60.9683 61.9236C60.6007 62.4738 60.4044 63.1207 60.4044 63.7824C60.4053 64.6693 60.7578 65.5196 61.3848 66.1468C62.0117 66.7741 62.8635 67.1271 63.7503 67.1284ZM14.2114 67.1284C14.8731 67.128 15.5198 66.9315 16.0698 66.5637C16.6198 66.1958 17.0484 65.6732 17.3014 65.0617C17.5544 64.4503 17.6205 63.7776 17.4912 63.1287C17.3619 62.4798 17.0431 61.8837 16.5751 61.416C16.1071 60.9482 15.5109 60.6297 14.8619 60.5007C14.2129 60.3717 13.5402 60.4381 12.929 60.6914C12.3177 60.9447 11.7952 61.3735 11.4276 61.9237C11.06 62.4739 10.8638 63.1208 10.8638 63.7824C10.8647 64.6696 11.2175 65.5201 11.8448 66.1474C12.4721 66.7747 13.3226 67.1275 14.2098 67.1284H14.2114ZM14.2114 10.8976C13.5496 10.8976 12.9027 11.0938 12.3525 11.4615C11.8023 11.8291 11.3734 12.3517 11.1202 12.9631C10.8669 13.5744 10.8007 14.2472 10.9298 14.8962C11.0589 15.5453 11.3775 16.1415 11.8455 16.6094C12.3134 17.0773 12.9096 17.396 13.5586 17.5251C14.2077 17.6542 14.8804 17.5879 15.4918 17.3347C16.1032 17.0815 16.6257 16.6526 16.9934 16.1024C17.3611 15.5521 17.5573 14.9052 17.5573 14.2435C17.5564 13.3561 17.2034 12.5053 16.5758 11.8779C15.9481 11.2506 15.0972 10.898 14.2098 10.8976H14.2114ZM24.7559 23.6348C22.6683 21.6245 20.8557 19.3471 19.3651 16.8617C18.8068 17.9519 17.9198 18.8389 16.8296 19.3972C19.315 20.8878 21.5924 22.7004 23.6027 24.788C25.4761 26.6479 26.9561 28.8659 27.9545 31.3097C28.9529 33.7535 29.4493 36.3733 29.4142 39.013C29.4491 41.6528 28.9524 44.2726 27.9537 46.7164C26.955 49.1603 25.4748 51.3781 23.601 53.238C21.5908 55.3255 19.3134 57.1381 16.828 58.6288C17.9178 59.1875 18.8047 60.0744 19.3634 61.1642C20.8546 58.6792 22.6672 56.4018 24.7542 54.3912C26.6142 52.5176 28.8321 51.0374 31.2759 50.0387C33.7197 49.0401 36.3395 48.5433 38.9792 48.578C41.619 48.5433 44.2388 49.0401 46.6826 50.0387C49.1264 51.0374 51.3443 52.5176 53.2042 54.3912C55.2918 56.4014 57.1044 58.6788 58.595 61.1642C59.1533 60.074 60.0403 59.187 61.1305 58.6288C58.6451 57.1381 56.3677 55.3255 54.3574 53.238C52.4839 51.378 51.0037 49.1601 50.005 46.7163C49.0063 44.2725 48.5096 41.6527 48.5443 39.013C48.5096 36.3732 49.0063 33.7534 50.005 31.3096C51.0037 28.8658 52.4839 26.6479 54.3574 24.788C56.3681 22.7009 58.6455 20.8883 61.1305 19.3972C60.0403 18.8389 59.1533 17.9519 58.595 16.8617C57.1047 19.3473 55.292 21.6248 53.2042 23.6348C51.3443 25.5083 49.1264 26.9885 46.6826 27.9872C44.2388 28.9859 41.619 29.4826 38.9792 29.4479C36.3395 29.4826 33.7197 28.9859 31.2759 27.9872C28.8321 26.9885 26.6142 25.5083 24.7542 23.6348H24.7559Z" fill="white"/>
<path d="M111.429 29.5402H105.073V49.0002H111.429C117.673 49.0002 121.761 45.3322 121.761 39.3402C121.761 33.3202 117.673 29.5402 111.429 29.5402ZM108.265 46.3962V32.1442H111.429C116.021 32.1442 118.485 34.8882 118.485 39.3402C118.485 43.7642 116.021 46.3962 111.429 46.3962H108.265ZM128.117 40.8802C128.117 37.6042 129.573 36.6242 131.925 36.6242H132.737V33.3202C130.553 33.3202 129.013 34.2722 128.117 35.8122V33.5722H124.925V49.0002H128.117V40.8802ZM150.371 41.2722C150.371 36.4282 146.899 33.3202 142.503 33.3202C138.107 33.3202 134.635 36.4282 134.635 41.2722C134.635 46.1162 137.967 49.2522 142.363 49.2522C146.787 49.2522 150.371 46.1162 150.371 41.2722ZM137.883 41.2722C137.883 37.7722 140.039 36.0922 142.447 36.0922C144.827 36.0922 147.095 37.7722 147.095 41.2722C147.095 44.7722 144.743 46.4802 142.363 46.4802C139.955 46.4802 137.883 44.7722 137.883 41.2722ZM164.474 49.0002H167.638V39.9002C167.638 35.5882 164.922 33.3202 161.31 33.3202C159.462 33.3202 157.754 34.0762 156.718 35.3362V33.5722H153.526V49.0002H156.718V40.3762C156.718 37.5482 158.258 36.0922 160.61 36.0922C162.934 36.0922 164.474 37.5482 164.474 40.3762V49.0002ZM174.706 49.0002H178.066L181.174 37.6042L184.282 49.0002H187.642L192.43 33.5722H189.294L186.102 45.9202L182.966 33.5722H179.634L176.358 45.9762L173.138 33.5722H169.89L174.706 49.0002ZM194.815 49.0002H198.007V33.5722H194.815V49.0002ZM196.439 31.5282C197.559 31.5282 198.455 30.6322 198.455 29.4842C198.455 28.3362 197.559 27.4402 196.439 27.4402C195.291 27.4402 194.395 28.3362 194.395 29.4842C194.395 30.6322 195.291 31.5282 196.439 31.5282ZM213.146 49.0002H216.31V39.9002C216.31 35.5882 213.594 33.3202 209.982 33.3202C208.134 33.3202 206.426 34.0762 205.39 35.3362V33.5722H202.198V49.0002H205.39V40.3762C205.39 37.5482 206.93 36.0922 209.282 36.0922C211.606 36.0922 213.146 37.5482 213.146 40.3762V49.0002ZM219.318 41.2162C219.318 45.9762 222.538 49.2522 226.598 49.2522C229.118 49.2522 230.966 48.0762 231.946 46.6762V49.0002H235.166V28.2802H231.946V35.7282C230.77 34.2722 228.642 33.3202 226.626 33.3202C222.538 33.3202 219.318 36.4562 219.318 41.2162ZM231.946 41.2722C231.946 44.6042 229.678 46.4802 227.27 46.4802C224.89 46.4802 222.594 44.5482 222.594 41.2162C222.594 37.8842 224.89 36.0922 227.27 36.0922C229.678 36.0922 231.946 37.9682 231.946 41.2722Z" fill="white"/>
</svg>
