<svg width="200" height="64" viewBox="0 0 200 64" fill="none" xmlns="http://www.w3.org/2000/svg">
<path d="M11.6632 40.6649C12.6757 40.6641 13.684 40.7949 14.6628 41.0542C14.9181 41.123 15.1357 41.2901 15.2681 41.519C15.4005 41.7479 15.4368 42.0199 15.3691 42.2755C15.3014 42.5311 15.1352 42.7495 14.9069 42.8829C14.6786 43.0162 14.4068 43.0538 14.1509 42.9872C12.0975 42.4426 9.9218 42.5903 7.96089 43.4075C5.99999 44.2247 4.36331 45.6658 3.30443 47.5075C2.24556 49.3491 1.82359 51.4886 2.1039 53.5944C2.38421 55.7002 3.35115 57.6548 4.85493 59.1554C6.3587 60.6559 8.31536 61.6187 10.4218 61.8945C12.5282 62.1703 14.6667 61.7437 16.5061 60.6809C18.3455 59.6181 19.7831 57.9783 20.5961 56.0157C21.4091 54.053 21.5522 51.877 21.0031 49.8248C20.9637 49.6962 20.9506 49.561 20.9645 49.4272C20.9785 49.2934 21.0193 49.1637 21.0845 49.0461C21.1497 48.9284 21.2379 48.825 21.3439 48.7422C21.4499 48.6594 21.5715 48.5988 21.7015 48.564C21.8315 48.5292 21.9671 48.521 22.1003 48.5398C22.2335 48.5586 22.3616 48.6041 22.4768 48.6735C22.592 48.7429 22.6921 48.8348 22.771 48.9438C22.85 49.0527 22.9061 49.1764 22.9362 49.3076C23.5682 51.6621 23.4468 54.1555 22.5891 56.4375C21.7314 58.7195 20.1803 60.6756 18.1539 62.0309C16.1274 63.3862 13.7273 64.0727 11.2907 63.9939C8.85409 63.9152 6.50333 63.0752 4.5686 61.5919C2.63388 60.1085 1.21238 58.0565 0.503759 55.7238C-0.20486 53.3912 -0.165003 50.8952 0.617732 48.5863C1.40047 46.2775 2.88676 44.2719 4.86786 42.8511C6.84896 41.4303 9.22534 40.6658 11.6632 40.6649ZM42.2786 48.5997C42.5348 48.6684 42.7533 48.8361 42.886 49.0658C43.0188 49.2955 43.0549 49.5685 42.9865 49.8248C42.4374 51.877 42.5805 54.053 43.3935 56.0157C44.2065 57.9783 45.6441 59.6181 47.4835 60.6809C49.3229 61.7437 51.4615 62.1703 53.5679 61.8945C55.6743 61.6187 57.6309 60.6559 59.1347 59.1554C60.6385 57.6548 61.6054 55.7002 61.8857 53.5944C62.166 51.4886 61.7441 49.3491 60.6852 47.5075C59.6263 45.6658 57.9896 44.2247 56.0287 43.4075C54.0678 42.5903 51.8921 42.4426 49.8388 42.9872C49.5824 43.0554 49.3095 43.0191 49.08 42.886C48.8505 42.753 48.6832 42.5343 48.6149 42.278C48.5467 42.0216 48.5831 41.7487 48.7161 41.5192C48.8491 41.2897 49.0678 41.1224 49.3242 41.0542C51.8005 40.3971 54.4244 40.5749 56.7895 41.5601C59.1545 42.5453 61.1287 44.2828 62.4062 46.5037C63.6837 48.7245 64.1933 51.3046 63.8559 53.8443C63.5186 56.384 62.3532 58.7416 60.5402 60.5519C58.7273 62.3623 56.368 63.5242 53.8278 63.8579C51.2875 64.1915 48.7082 63.6782 46.4892 62.3975C44.2703 61.1168 42.5356 59.1401 41.5538 56.7736C40.5721 54.4071 40.3981 51.783 41.0588 49.3076C41.1282 49.0529 41.2951 48.8358 41.5234 48.7033C41.7517 48.5708 42.023 48.5336 42.2786 48.5997ZM21.7084 15.3994C21.4521 15.3307 21.2337 15.163 21.1009 14.9333C20.9682 14.7036 20.9321 14.4306 21.0005 14.1743C21.5495 12.1221 21.4065 9.94606 20.5934 7.98341C19.7804 6.02075 18.3429 4.381 16.5035 3.31818C14.6641 2.25536 12.5255 1.82881 10.4191 2.1046C8.31269 2.3804 6.35603 3.34316 4.85226 4.84372C3.34849 6.34427 2.38154 8.29885 2.10123 10.4047C1.82092 12.5105 2.24289 14.6499 3.30177 16.4916C4.36064 18.3333 5.99732 19.7744 7.95823 20.5916C9.91913 21.4088 12.0948 21.5565 14.1482 21.0119C14.4045 20.9436 14.6775 20.98 14.907 21.113C15.1365 21.246 15.3038 21.4648 15.372 21.7211C15.4402 21.9774 15.4039 22.2504 15.2709 22.4799C15.1378 22.7094 14.9191 22.8767 14.6628 22.9449C12.1864 23.602 9.56253 23.4242 7.19749 22.439C4.83245 21.4538 2.85827 19.7162 1.58075 17.4954C0.303238 15.2746 -0.206314 12.6945 0.131025 10.1548C0.468364 7.61508 1.63377 5.25746 3.44672 3.44714C5.25966 1.63682 7.61897 0.474853 10.1592 0.141204C12.6994 -0.192446 15.2788 0.320854 17.4977 1.60159C19.7167 2.88233 21.4514 4.85903 22.4331 7.2255C23.4149 9.59197 23.5889 12.2161 22.9282 14.6915C22.8591 14.9464 22.6922 15.1637 22.4638 15.2962C22.2354 15.4288 21.9639 15.4659 21.7084 15.3994ZM52.3237 23.3342C51.3112 23.335 50.3029 23.2042 49.3242 22.9449C49.0689 22.8761 48.8512 22.709 48.7189 22.4801C48.5865 22.2512 48.5502 21.9792 48.6179 21.7236C48.6856 21.468 48.8517 21.2496 49.0801 21.1162C49.3084 20.9828 49.5802 20.9453 49.8361 21.0119C51.8895 21.5565 54.0652 21.4088 56.0261 20.5916C57.987 19.7744 59.6236 18.3333 60.6825 16.4916C61.7414 14.6499 62.1634 12.5105 61.8831 10.4047C61.6027 8.29885 60.6358 6.34427 59.132 4.84372C57.6283 3.34316 55.6716 2.3804 53.5652 2.1046C51.4588 1.82881 49.3202 2.25536 47.4808 3.31818C45.6414 4.381 44.2039 6.02075 43.3908 7.98341C42.5778 9.94606 42.4348 12.1221 42.9838 14.1743C43.0233 14.3029 43.0364 14.4381 43.0224 14.5719C43.0084 14.7057 42.9676 14.8353 42.9025 14.953C42.8373 15.0707 42.749 15.174 42.643 15.2569C42.537 15.3397 42.4154 15.4003 42.2855 15.4351C42.1555 15.4698 42.0199 15.4781 41.8867 15.4593C41.7534 15.4405 41.6254 15.395 41.5102 15.3256C41.3949 15.2562 41.2948 15.1643 41.2159 15.0553C41.137 14.9464 41.0808 14.8226 41.0508 14.6915C40.4187 12.337 40.5401 9.84359 41.3978 7.56157C42.2556 5.27955 43.8066 3.32352 45.8331 1.96822C47.8595 0.612922 50.2596 -0.0735613 52.6962 0.00517889C55.1329 0.0839191 57.4836 0.92393 59.4184 2.40723C61.3531 3.89054 62.7746 5.94262 63.4832 8.27526C64.1918 10.6079 64.152 13.1039 63.3692 15.4127C62.5865 17.7216 61.1002 19.7272 59.1191 21.148C57.138 22.5688 54.7616 23.3333 52.3237 23.3342Z" fill="white"/>
<path d="M47.8577 10.07C48.1268 9.31598 48.5823 8.64228 49.1818 8.11162C49.7813 7.58095 50.5052 7.21056 51.2863 7.03491C52.0674 6.85927 52.8803 6.88408 53.6492 7.10703C54.4181 7.32999 55.1182 7.74384 55.6842 8.31008C56.2502 8.87632 56.6637 9.57654 56.8863 10.3456C57.1089 11.1146 57.1334 11.9275 56.9574 12.7085C56.7814 13.4895 56.4107 14.2133 55.8798 14.8126C55.3488 15.4118 54.675 15.867 53.9208 16.1357C51.0056 17.5194 48.3522 19.3976 46.078 21.6869C44.7081 23.0277 43.6261 24.6339 42.8981 26.4071C42.1701 28.1803 41.8115 30.0834 41.844 32C41.8118 33.9161 42.1707 35.8187 42.8987 37.5915C43.6267 39.3642 44.7085 40.9699 46.078 42.3104C48.3543 44.5991 51.0084 46.4779 53.9235 47.8642C54.6775 48.1333 55.3512 48.5888 55.8819 49.1883C56.4125 49.7878 56.7829 50.5117 56.9586 51.2928C57.1342 52.0739 57.1094 52.8868 56.8864 53.6557C56.6635 54.4247 56.2496 55.1247 55.6834 55.6907C55.1172 56.2567 54.4169 56.6702 53.6479 56.8928C52.8789 57.1155 52.066 57.1399 51.285 56.9639C50.504 56.7879 49.7802 56.4172 49.1809 55.8863C48.5817 55.3554 48.1265 54.6815 47.8577 53.9273C46.4744 51.012 44.5962 48.3584 42.3066 46.0845C40.9657 44.7147 39.3596 43.6327 37.5864 42.9047C35.8131 42.1767 33.9101 41.818 31.9935 41.8505C30.0773 41.8183 28.1748 42.1772 26.402 42.9052C24.6293 43.6332 23.0236 44.715 21.6831 46.0845C19.3941 48.3606 17.5152 51.0147 16.1292 53.93C15.8602 54.6843 15.4048 55.3582 14.8052 55.8891C14.2057 56.4199 13.4816 56.7905 12.7003 56.9662C11.919 57.1418 11.106 57.117 10.3369 56.8939C9.5678 56.6708 8.86766 56.2568 8.30167 55.6903C7.73567 55.1238 7.32222 54.4233 7.09981 53.654C6.8774 52.8847 6.85326 52.0716 7.02964 51.2905C7.20602 50.5094 7.57719 49.7856 8.10858 49.1865C8.63998 48.5874 9.31432 48.1326 10.0688 47.8642C12.9831 46.481 15.6357 44.6033 17.909 42.3144C19.2792 40.9736 20.3615 39.3673 21.0895 37.5938C21.8175 35.8203 22.176 33.9168 22.143 32C22.1755 30.0838 21.8167 28.1812 21.0887 26.4084C20.3607 24.6356 19.2787 23.0299 17.909 21.6896C15.6337 19.4009 12.9805 17.522 10.0662 16.1357C9.31237 15.8665 8.63892 15.411 8.10846 14.8116C7.57799 14.2122 7.20774 13.4884 7.03214 12.7075C6.85655 11.9266 6.88131 11.1139 7.10414 10.3451C7.32696 9.57635 7.7406 8.87642 8.30658 8.31043C8.87257 7.74445 9.5725 7.33081 10.3413 7.10798C11.1101 6.88516 11.9227 6.86039 12.7036 7.03599C13.4846 7.21158 14.2084 7.58184 14.8078 8.1123C15.4072 8.64277 15.8627 9.31622 16.1319 10.07C17.5153 12.9854 19.3934 15.6389 21.6831 17.9128C23.0234 19.2828 24.6289 20.3651 26.4017 21.0936C28.1745 21.822 30.0772 22.1813 31.9935 22.1495C33.9096 22.1817 35.8122 21.8228 37.5849 21.0948C39.3577 20.3668 40.9634 19.285 42.3039 17.9155C44.5929 15.6394 46.4717 12.9853 47.8577 10.07ZM52.325 8.92351C51.7819 8.92351 51.2509 9.08458 50.7993 9.38634C50.3477 9.6881 49.9957 10.117 49.7878 10.6188C49.58 11.1206 49.5256 11.6728 49.6316 12.2055C49.7375 12.7382 49.9991 13.2276 50.3832 13.6116C50.7672 13.9957 51.2566 14.2573 51.7893 14.3632C52.322 14.4692 52.8742 14.4148 53.376 14.207C53.8778 13.9991 54.3067 13.6471 54.6085 13.1955C54.9102 12.7439 55.0713 12.2129 55.0713 11.6698C55.0706 10.9414 54.7808 10.2431 54.2657 9.72818C53.7505 9.21327 53.0534 8.92386 52.325 8.92351ZM52.325 55.0765C52.8682 55.0765 53.3992 54.9154 53.8508 54.6137C54.3024 54.3119 54.6544 53.883 54.8622 53.3812C55.0701 52.8794 55.1245 52.3272 55.0185 51.7945C54.9126 51.2617 54.651 50.7724 54.2669 50.3883C53.8829 50.0043 53.3935 49.7427 52.8608 49.6367C52.3281 49.5308 51.7759 49.5852 51.2741 49.793C50.7723 50.0009 50.3434 50.3529 50.0416 50.8045C49.7399 51.2561 49.5788 51.7871 49.5788 52.3302C49.5795 53.0581 49.8689 53.756 50.3835 54.2709C50.898 54.7857 51.5971 55.0754 52.325 55.0765ZM11.6646 55.0765C12.2077 55.0762 12.7385 54.9149 13.1899 54.613C13.6414 54.3111 13.9932 53.8821 14.2008 53.3802C14.4085 52.8784 14.4627 52.3263 14.3566 51.7936C14.2504 51.261 13.9888 50.7718 13.6047 50.3879C13.2205 50.0039 12.7312 49.7425 12.1985 49.6367C11.6658 49.5308 11.1137 49.5853 10.612 49.7932C10.1103 50.0011 9.68143 50.353 9.37973 50.8046C9.07803 51.2562 8.917 51.7871 8.917 52.3302C8.9177 53.0584 9.20726 53.7565 9.72213 54.2713C10.237 54.7862 10.9351 55.0758 11.6632 55.0765H11.6646ZM11.6646 8.92351C11.1214 8.92351 10.5905 9.08458 10.1388 9.38634C9.68723 9.6881 9.33523 10.117 9.12738 10.6188C8.91952 11.1206 8.86513 11.6728 8.9711 12.2055C9.07706 12.7382 9.33862 13.2276 9.72269 13.6116C10.1068 13.9957 10.5961 14.2573 11.1288 14.3632C11.6615 14.4692 12.2137 14.4148 12.7155 14.207C13.2173 13.9991 13.6462 13.6471 13.948 13.1955C14.2498 12.7439 14.4108 12.2129 14.4108 11.6698C14.4101 10.9414 14.1204 10.2431 13.6052 9.72818C13.0901 9.21327 12.3916 8.92386 11.6632 8.92351H11.6646ZM20.3193 19.3779C18.6058 17.728 17.1181 15.8587 15.8946 13.8188C15.4364 14.7136 14.7084 15.4416 13.8136 15.8998C15.8535 17.1232 17.7228 18.611 19.3727 20.3244C20.9104 21.8511 22.1251 23.6715 22.9446 25.6773C23.7641 27.6832 24.1715 29.8334 24.1427 32C24.1713 34.1667 23.7637 36.317 22.944 38.3228C22.1243 40.3287 20.9093 42.1491 19.3714 43.6755C17.7214 45.389 15.8522 46.8767 13.8123 48.1002C14.7067 48.5588 15.4346 49.2867 15.8933 50.1812C17.1172 48.1416 18.6049 46.2724 20.3179 44.6221C21.8445 43.0843 23.6649 41.8694 25.6707 41.0497C27.6766 40.23 29.8268 39.8223 31.9935 39.8508C34.1601 39.8223 36.3104 40.23 38.3162 41.0497C40.3221 41.8694 42.1424 43.0843 43.669 44.6221C45.3825 46.272 46.8702 48.1413 48.0937 50.1812C48.5519 49.2864 49.2799 48.5584 50.1747 48.1002C48.1348 46.8767 46.2655 45.389 44.6156 43.6755C43.0778 42.149 41.8629 40.3286 41.0432 38.3227C40.2235 36.3169 39.8158 34.1667 39.8443 32C39.8158 29.8333 40.2235 27.6831 41.0432 25.6773C41.8629 23.6714 43.0778 21.851 44.6156 20.3244C46.2659 18.6114 48.1351 17.1237 50.1747 15.8998C49.2799 15.4416 48.5519 14.7136 48.0937 13.8188C46.8705 15.8589 45.3827 17.7282 43.669 19.3779C42.1424 20.9157 40.3221 22.1306 38.3162 22.9503C36.3104 23.77 34.1601 24.1777 31.9935 24.1492C29.8268 24.1777 27.6766 23.77 25.6707 22.9503C23.6649 22.1306 21.8445 20.9157 20.3179 19.3779H20.3193Z" fill="white"/>
<path d="M91.248 23.32C93.024 23.32 94.576 23.664 95.904 24.352C97.248 25.024 98.28 26 99 27.28C99.736 28.544 100.104 30.024 100.104 31.72C100.104 33.416 99.736 34.888 99 36.136C98.28 37.384 97.248 38.344 95.904 39.016C94.576 39.672 93.024 40 91.248 40H85.8V23.32H91.248ZM91.248 37.768C93.2 37.768 94.696 37.24 95.736 36.184C96.776 35.128 97.296 33.64 97.296 31.72C97.296 29.784 96.776 28.272 95.736 27.184C94.696 26.096 93.2 25.552 91.248 25.552H88.536V37.768H91.248ZM105.552 28.696C105.952 28.024 106.48 27.504 107.136 27.136C107.808 26.752 108.6 26.56 109.512 26.56V29.392H108.816C107.744 29.392 106.928 29.664 106.368 30.208C105.824 30.752 105.552 31.696 105.552 33.04V40H102.816V26.776H105.552V28.696ZM117.763 40.216C116.515 40.216 115.387 39.936 114.379 39.376C113.371 38.8 112.579 38 112.003 36.976C111.427 35.936 111.139 34.736 111.139 33.376C111.139 32.032 111.435 30.84 112.027 29.8C112.619 28.76 113.427 27.96 114.451 27.4C115.475 26.84 116.619 26.56 117.883 26.56C119.147 26.56 120.291 26.84 121.315 27.4C122.339 27.96 123.147 28.76 123.739 29.8C124.331 30.84 124.627 32.032 124.627 33.376C124.627 34.72 124.323 35.912 123.715 36.952C123.107 37.992 122.275 38.8 121.219 39.376C120.179 39.936 119.027 40.216 117.763 40.216ZM117.763 37.84C118.467 37.84 119.123 37.672 119.731 37.336C120.355 37 120.859 36.496 121.243 35.824C121.627 35.152 121.819 34.336 121.819 33.376C121.819 32.416 121.635 31.608 121.267 30.952C120.899 30.28 120.411 29.776 119.803 29.44C119.195 29.104 118.539 28.936 117.835 28.936C117.131 28.936 116.475 29.104 115.867 29.44C115.275 29.776 114.803 30.28 114.451 30.952C114.099 31.608 113.923 32.416 113.923 33.376C113.923 34.8 114.283 35.904 115.003 36.688C115.739 37.456 116.659 37.84 117.763 37.84ZM134.003 26.56C135.043 26.56 135.971 26.776 136.787 27.208C137.619 27.64 138.267 28.28 138.731 29.128C139.195 29.976 139.427 31 139.427 32.2V40H136.715V32.608C136.715 31.424 136.419 30.52 135.827 29.896C135.235 29.256 134.427 28.936 133.403 28.936C132.379 28.936 131.563 29.256 130.955 29.896C130.363 30.52 130.067 31.424 130.067 32.608V40H127.331V26.776H130.067V28.288C130.515 27.744 131.083 27.32 131.771 27.016C132.475 26.712 133.219 26.56 134.003 26.56ZM160.677 26.776L156.573 40H153.693L151.029 30.232L148.365 40H145.485L141.357 26.776H144.141L146.901 37.408L149.709 26.776H152.565L155.253 37.36L157.989 26.776H160.677ZM164.114 25.024C163.618 25.024 163.202 24.856 162.866 24.52C162.53 24.184 162.362 23.768 162.362 23.272C162.362 22.776 162.53 22.36 162.866 22.024C163.202 21.688 163.618 21.52 164.114 21.52C164.594 21.52 165.002 21.688 165.338 22.024C165.674 22.36 165.842 22.776 165.842 23.272C165.842 23.768 165.674 24.184 165.338 24.52C165.002 24.856 164.594 25.024 164.114 25.024ZM165.458 26.776V40H162.722V26.776H165.458ZM175.722 26.56C176.762 26.56 177.69 26.776 178.506 27.208C179.338 27.64 179.986 28.28 180.45 29.128C180.914 29.976 181.146 31 181.146 32.2V40H178.434V32.608C178.434 31.424 178.138 30.52 177.546 29.896C176.954 29.256 176.146 28.936 175.122 28.936C174.098 28.936 173.282 29.256 172.674 29.896C172.082 30.52 171.786 31.424 171.786 32.608V40H169.05V26.776H171.786V28.288C172.234 27.744 172.802 27.32 173.49 27.016C174.194 26.712 174.938 26.56 175.722 26.56ZM183.724 33.328C183.724 32 183.996 30.824 184.54 29.8C185.1 28.776 185.852 27.984 186.796 27.424C187.756 26.848 188.82 26.56 189.988 26.56C190.852 26.56 191.7 26.752 192.532 27.136C193.38 27.504 194.052 28 194.548 28.624V22.24H197.308V40H194.548V38.008C194.1 38.648 193.476 39.176 192.676 39.592C191.892 40.008 190.988 40.216 189.964 40.216C188.812 40.216 187.756 39.928 186.796 39.352C185.852 38.76 185.1 37.944 184.54 36.904C183.996 35.848 183.724 34.656 183.724 33.328ZM194.548 33.376C194.548 32.464 194.356 31.672 193.972 31C193.604 30.328 193.116 29.816 192.508 29.464C191.9 29.112 191.244 28.936 190.54 28.936C189.836 28.936 189.18 29.112 188.572 29.464C187.964 29.8 187.468 30.304 187.084 30.976C186.716 31.632 186.532 32.416 186.532 33.328C186.532 34.24 186.716 35.04 187.084 35.728C187.468 36.416 187.964 36.944 188.572 37.312C189.196 37.664 189.852 37.84 190.54 37.84C191.244 37.84 191.9 37.664 192.508 37.312C193.116 36.96 193.604 36.448 193.972 35.776C194.356 35.088 194.548 34.288 194.548 33.376Z" fill="url(#paint0_linear_805_1016)"/>
<defs>
<linearGradient id="paint0_linear_805_1016" x1="142" y1="14" x2="142" y2="50" gradientUnits="userSpaceOnUse">
<stop stop-color="#EFD0AD"/>
<stop offset="1" stop-color="#C7D6CE"/>
</linearGradient>
</defs>
</svg>
