<svg width="54" height="54" viewBox="0 0 54 54" fill="none" xmlns="http://www.w3.org/2000/svg">
<path d="M42.6325 30.4545H7.14711C5.25206 30.4529 3.43506 29.6994 2.09505 28.3594C0.755043 27.0194 0.0015486 25.2024 0 23.3074V11.2697C0.0015486 9.37461 0.755043 7.55762 2.09505 6.21761C3.43506 4.8776 5.25206 4.12411 7.14711 4.12256H42.6325C44.5276 4.12411 46.3446 4.8776 47.6846 6.21761C49.0246 7.55762 49.7781 9.37461 49.7796 11.2697V23.3093C49.7776 25.204 49.0238 27.0205 47.6839 28.3601C46.3439 29.6997 44.5272 30.4529 42.6325 30.4545ZM7.14711 6.20367C5.80332 6.2047 4.51487 6.73898 3.56467 7.68918C2.61447 8.63938 2.08019 9.92783 2.07916 11.2716V23.3113C2.08019 24.655 2.61447 25.9435 3.56467 26.8937C4.51487 27.8439 5.80332 28.3782 7.14711 28.3792H42.6325C43.9763 28.3782 45.2648 27.8439 46.215 26.8937C47.1652 25.9435 47.6994 24.655 47.7005 23.3113V11.2697C47.6994 9.92588 47.1652 8.63743 46.215 7.68723C45.2648 6.73703 43.9763 6.20275 42.6325 6.20172L7.14711 6.20367Z" fill="url(#paint0_linear_797_935)"/>
<path d="M41.2051 30.4545C40.9294 30.4545 40.665 30.345 40.47 30.15C40.2751 29.9551 40.1656 29.6906 40.1656 29.4149V5.16411C40.1656 4.8884 40.2751 4.62398 40.47 4.42902C40.665 4.23406 40.9294 4.12453 41.2051 4.12453C41.4808 4.12453 41.7453 4.23406 41.9402 4.42902C42.1352 4.62398 42.2447 4.8884 42.2447 5.16411V29.4149C42.2447 29.6906 42.1352 29.9551 41.9402 30.15C41.7453 30.345 41.4808 30.4545 41.2051 30.4545ZM8.57271 30.4545C8.297 30.4545 8.03258 30.345 7.83762 30.15C7.64266 29.9551 7.53313 29.6906 7.53313 29.4149V5.16411C7.53313 4.8884 7.64266 4.62398 7.83762 4.42902C8.03258 4.23406 8.297 4.12453 8.57271 4.12453C8.84843 4.12453 9.11285 4.23406 9.30781 4.42902C9.50277 4.62398 9.61229 4.8884 9.61229 5.16411V29.4149C9.61229 29.6906 9.50277 29.9551 9.30781 30.15C9.11285 30.345 8.84843 30.4545 8.57271 30.4545ZM44.9717 19.4272C44.6959 19.4272 44.4315 19.3176 44.2366 19.1227C44.0416 18.9277 43.9321 18.6633 43.9321 18.3876V16.1915C43.9321 15.9157 44.0416 15.6513 44.2366 15.4564C44.4315 15.2614 44.6959 15.1519 44.9717 15.1519C45.2474 15.1519 45.5118 15.2614 45.7067 15.4564C45.9017 15.6513 46.0112 15.9157 46.0112 16.1915V18.3876C46.0112 18.6633 45.9017 18.9277 45.7067 19.1227C45.5118 19.3176 45.2474 19.4272 44.9717 19.4272ZM4.80813 19.4272C4.53242 19.4272 4.268 19.3176 4.07304 19.1227C3.87808 18.9277 3.76855 18.6633 3.76855 18.3876V16.1915C3.76855 15.9157 3.87808 15.6513 4.07304 15.4564C4.268 15.2614 4.53242 15.1519 4.80813 15.1519C5.08385 15.1519 5.34827 15.2614 5.54323 15.4564C5.73819 15.6513 5.84771 15.9157 5.84771 16.1915V18.3876C5.84771 18.6633 5.73819 18.9277 5.54323 19.1227C5.34827 19.3176 5.08385 19.4272 4.80813 19.4272ZM32.3804 34.579H17.3974C17.1217 34.579 16.8573 34.4695 16.6624 34.2745C16.4674 34.0796 16.3579 33.8152 16.3579 33.5395V29.4143C16.3579 29.1386 16.4674 28.8741 16.6624 28.6792C16.8573 28.4842 17.1217 28.3747 17.3974 28.3747C17.6732 28.3747 17.9376 28.4842 18.1325 28.6792C18.3275 28.8741 18.437 29.1386 18.437 29.4143V32.4999H31.3408V29.4143C31.3408 29.1386 31.4503 28.8741 31.6453 28.6792C31.8403 28.4842 32.1047 28.3747 32.3804 28.3747C32.6561 28.3747 32.9205 28.4842 33.1155 28.6792C33.3104 28.8741 33.42 29.1386 33.42 29.4143V33.5395C33.42 33.8152 33.3104 34.0796 33.1155 34.2745C32.9205 34.4695 32.6561 34.579 32.3804 34.579ZM32.3804 6.20369C32.1047 6.20369 31.8403 6.09417 31.6453 5.89921C31.4503 5.70425 31.3408 5.43983 31.3408 5.16411V2.07916H18.437V5.16411C18.437 5.43983 18.3275 5.70425 18.1325 5.89921C17.9376 6.09417 17.6732 6.20369 17.3974 6.20369C17.1217 6.20369 16.8573 6.09417 16.6624 5.89921C16.4674 5.70425 16.3579 5.43983 16.3579 5.16411V1.03958C16.3579 0.763866 16.4674 0.499445 16.6624 0.304486C16.8573 0.109527 17.1217 0 17.3974 0H32.3804C32.6561 0 32.9205 0.109527 33.1155 0.304486C33.3104 0.499445 33.42 0.763866 33.42 1.03958V5.16411C33.42 5.43983 33.3104 5.70425 33.1155 5.89921C32.9205 6.09417 32.6561 6.20369 32.3804 6.20369Z" fill="url(#paint1_linear_797_935)"/>
<path d="M22.3218 45.2425C22.0461 45.2425 21.7817 45.133 21.5867 44.938C21.3918 44.7431 21.2822 44.4787 21.2822 44.2029V33.5395C21.2822 33.2637 21.3918 32.9993 21.5867 32.8044C21.7817 32.6094 22.0461 32.4999 22.3218 32.4999C22.5975 32.4999 22.8619 32.6094 23.0569 32.8044C23.2519 32.9993 23.3614 33.2637 23.3614 33.5395V44.2029C23.3614 44.4787 23.2519 44.7431 23.0569 44.938C22.8619 45.133 22.5975 45.2425 22.3218 45.2425ZM37.972 51.417H26.4496C26.1739 51.417 25.9095 51.3075 25.7145 51.1125C25.5195 50.9175 25.41 50.6531 25.41 50.3774C25.41 50.1017 25.5195 49.8373 25.7145 49.6423C25.9095 49.4474 26.1739 49.3378 26.4496 49.3378H37.972C38.2477 49.3378 38.5122 49.4474 38.7071 49.6423C38.9021 49.8373 39.0116 50.1017 39.0116 50.3774C39.0116 50.6531 38.9021 50.9175 38.7071 51.1125C38.5122 51.3075 38.2477 51.417 37.972 51.417ZM27.456 44.7591C27.1803 44.7591 26.9159 44.6496 26.7209 44.4546C26.526 44.2597 26.4165 43.9953 26.4165 43.7195V33.5395C26.4165 33.2637 26.526 32.9993 26.7209 32.8044C26.9159 32.6094 27.1803 32.4999 27.456 32.4999C27.7317 32.4999 27.9962 32.6094 28.1911 32.8044C28.3861 32.9993 28.4956 33.2637 28.4956 33.5395V43.7195C28.4956 43.9953 28.3861 44.2597 28.1911 44.4546C27.9962 44.6496 27.7317 44.7591 27.456 44.7591Z" fill="url(#paint2_linear_797_935)"/>
<path d="M37.9717 46.2814H28.6597C28.384 46.2814 28.1196 46.1719 27.9246 45.9769C27.7296 45.782 27.6201 45.5176 27.6201 45.2419C27.6201 44.9661 27.7296 44.7017 27.9246 44.5068C28.1196 44.3118 28.384 44.2023 28.6597 44.2023H37.9717C38.2474 44.2023 38.5119 44.3118 38.7068 44.5068C38.9018 44.7017 39.0113 44.9661 39.0113 45.2419C39.0113 45.5176 38.9018 45.782 38.7068 45.9769C38.5119 46.1719 38.2474 46.2814 37.9717 46.2814Z" fill="url(#paint3_linear_797_935)"/>
<path d="M48.7354 53.1329H37.9718C37.6961 53.1329 37.4317 53.0233 37.2367 52.8284C37.0418 52.6334 36.9322 52.369 36.9322 52.0933V43.5246C36.9322 43.2488 37.0418 42.9844 37.2367 42.7895C37.4317 42.5945 37.6961 42.485 37.9718 42.485H48.7354C50.1369 42.5005 51.4758 43.0681 52.4614 44.0647C53.4471 45.0612 53.9999 46.4063 53.9999 47.8079C53.9999 49.2096 53.4471 50.5547 52.4614 51.5512C51.4758 52.5478 50.1369 53.1154 48.7354 53.1309V53.1329ZM39.0114 51.0537H48.7354C49.5877 51.0416 50.4011 50.6946 50.9996 50.0876C51.5981 49.4805 51.9336 48.6623 51.9336 47.8099C51.9336 46.9574 51.5981 46.1393 50.9996 45.5322C50.4011 44.9252 49.5877 44.5781 48.7354 44.5661H39.0114V51.0537ZM25.1532 51.6424C24.1907 51.6428 23.2497 51.3577 22.4492 50.8233C21.6487 50.2889 21.0246 49.5292 20.6559 48.6401C20.2872 47.7511 20.1904 46.7726 20.3778 45.8286C20.5651 44.8845 21.0282 44.0172 21.7084 43.3363C22.3887 42.6554 23.2556 42.1915 24.1995 42.0033C25.1434 41.815 26.1219 41.9109 27.0113 42.2788C27.9007 42.6467 28.661 43.27 29.1962 44.07C29.7313 44.87 30.0172 45.8108 30.0177 46.7732C30.0167 48.0635 29.504 49.3007 28.5921 50.2135C27.6801 51.1263 26.4434 51.6401 25.1532 51.6424ZM25.1532 43.9891C24.6016 43.9887 24.0624 44.152 23.6037 44.4581C23.145 44.7643 22.7874 45.1997 22.5763 45.7092C22.3651 46.2187 22.3098 46.7794 22.4174 47.3203C22.525 47.8612 22.7906 48.358 23.1807 48.7479C23.5708 49.1378 24.0677 49.4032 24.6087 49.5106C25.1497 49.6179 25.7103 49.5623 26.2197 49.3509C26.7291 49.1395 27.1643 48.7818 27.4703 48.3229C27.7762 47.8641 27.9392 47.3248 27.9386 46.7732C27.937 46.0351 27.643 45.3276 27.121 44.8058C26.5989 44.284 25.8913 43.9903 25.1532 43.9891Z" fill="url(#paint4_linear_797_935)"/>
<defs>
<linearGradient id="paint0_linear_797_935" x1="-5.99199" y1="1.89242" x2="16.1924" y2="48.8993" gradientUnits="userSpaceOnUse">
<stop stop-color="#EFD0AD"/>
<stop offset="0.9999" stop-color="#C7D6CE"/>
<stop offset="1" stop-opacity="0"/>
</linearGradient>
<linearGradient id="paint1_linear_797_935" x1="-1.31621" y1="-2.92861" x2="34.633" y2="46.2948" gradientUnits="userSpaceOnUse">
<stop stop-color="#EFD0AD"/>
<stop offset="0.9999" stop-color="#C7D6CE"/>
<stop offset="1" stop-opacity="0"/>
</linearGradient>
<linearGradient id="paint2_linear_797_935" x1="19.1481" y1="30.8977" x2="39.769" y2="52.5593" gradientUnits="userSpaceOnUse">
<stop stop-color="#EFD0AD"/>
<stop offset="0.9999" stop-color="#C7D6CE"/>
<stop offset="1" stop-opacity="0"/>
</linearGradient>
<linearGradient id="paint3_linear_797_935" x1="26.249" y1="44.0262" x2="26.9689" y2="48.4473" gradientUnits="userSpaceOnUse">
<stop stop-color="#EFD0AD"/>
<stop offset="0.9999" stop-color="#C7D6CE"/>
<stop offset="1" stop-opacity="0"/>
</linearGradient>
<linearGradient id="paint4_linear_797_935" x1="16.2264" y1="40.9587" x2="22.9127" y2="63.4714" gradientUnits="userSpaceOnUse">
<stop stop-color="#EFD0AD"/>
<stop offset="0.9999" stop-color="#C7D6CE"/>
<stop offset="1" stop-opacity="0"/>
</linearGradient>
</defs>
</svg>
