<svg width="39" height="49" viewBox="0 0 39 49" fill="none" xmlns="http://www.w3.org/2000/svg">
<path d="M34.9375 19.5H34.125V17.0625C34.125 16.847 34.0394 16.6404 33.887 16.488C33.7347 16.3356 33.528 16.25 33.3125 16.25H32.461L31.7338 1.52344C31.7079 1.11031 31.5254 0.722616 31.2234 0.439502C30.9214 0.156388 30.5228 -0.000806118 30.1088 3.10893e-06H30.0097C29.5945 0.000915281 29.1953 0.160096 28.8933 0.445114C28.5914 0.730132 28.4095 1.11954 28.3847 1.534L27.664 16.25H26.8125C26.597 16.25 26.3903 16.3356 26.238 16.488C26.0856 16.6404 26 16.847 26 17.0625V19.5H13V17.0625C13 16.847 12.9144 16.6404 12.762 16.488C12.6097 16.3356 12.403 16.25 12.1875 16.25H11.336L10.6047 1.52344C10.5789 1.11031 10.3963 0.722616 10.0943 0.439502C9.79234 0.156388 9.39369 -0.000806118 8.97975 3.10893e-06H8.88062C8.46542 0.000915281 8.06619 0.160096 7.76426 0.445114C7.46234 0.730132 7.28044 1.11954 7.25563 1.534L6.539 16.25H5.6875C5.47201 16.25 5.26535 16.3356 5.11298 16.488C4.9606 16.6404 4.875 16.847 4.875 17.0625V19.5H4.0625C2.98545 19.5013 1.95289 19.9297 1.1913 20.6913C0.429717 21.4529 0.00129013 22.4855 0 23.5625V44.6875C0.00129013 45.7645 0.429717 46.7971 1.1913 47.5587C1.95289 48.3203 2.98545 48.7487 4.0625 48.75H34.9375C36.0145 48.7487 37.0471 48.3203 37.8087 47.5587C38.5703 46.7971 38.9987 45.7645 39 44.6875V23.5625C38.9987 22.4855 38.5703 21.4529 37.8087 20.6913C37.0471 19.9297 36.0145 19.5013 34.9375 19.5ZM30.0129 1.625L30.1113 1.61444L30.8336 16.25H29.2898L30.0129 1.625ZM27.625 17.875H32.5V19.5H27.625V17.875ZM8.88794 1.625L8.98625 1.61444L9.70856 16.25H8.16481L8.88794 1.625ZM6.5 17.875H11.375V19.5H6.5V17.875ZM37.375 44.6875C37.375 45.334 37.1182 45.954 36.6611 46.4111C36.204 46.8682 35.584 47.125 34.9375 47.125H4.0625C3.41603 47.125 2.79605 46.8682 2.33893 46.4111C1.88181 45.954 1.625 45.334 1.625 44.6875V23.5625C1.625 22.916 1.88181 22.296 2.33893 21.8389C2.79605 21.3818 3.41603 21.125 4.0625 21.125H34.9375C35.584 21.125 36.204 21.3818 36.6611 21.8389C37.1182 22.296 37.375 22.916 37.375 23.5625V44.6875Z" fill="url(#paint0_linear_797_926)"/>
<path d="M9.75 30.875C8.46442 30.875 7.20772 31.2562 6.1388 31.9704C5.06988 32.6847 4.23676 33.6998 3.74479 34.8876C3.25282 36.0753 3.12409 37.3822 3.3749 38.6431C3.6257 39.904 4.24477 41.0622 5.15381 41.9712C6.06285 42.8802 7.22104 43.4993 8.48192 43.7501C9.74279 44.0009 11.0497 43.8722 12.2374 43.3802C13.4252 42.8882 14.4403 42.0551 15.1546 40.9862C15.8688 39.9173 16.25 38.6606 16.25 37.375C16.2481 35.6517 15.5626 33.9995 14.3441 32.7809C13.1255 31.5624 11.4733 30.8769 9.75 30.875ZM9.75 42.25C8.78582 42.25 7.84329 41.9641 7.0416 41.4284C6.23991 40.8927 5.61507 40.1314 5.24609 39.2406C4.87711 38.3498 4.78057 37.3696 4.96867 36.4239C5.15678 35.4783 5.62108 34.6096 6.30286 33.9279C6.98464 33.2461 7.85328 32.7818 8.79894 32.5937C9.7446 32.4056 10.7248 32.5021 11.6156 32.8711C12.5064 33.2401 13.2677 33.8649 13.8034 34.6666C14.3391 35.4683 14.625 36.4108 14.625 37.375C14.6237 38.6675 14.1097 39.9068 13.1957 40.8207C12.2818 41.7347 11.0425 42.2487 9.75 42.25Z" fill="url(#paint1_linear_797_926)"/>
<path d="M6.5 34.9375C6.28451 34.9375 6.07785 35.0231 5.92548 35.1755C5.7731 35.3278 5.6875 35.5345 5.6875 35.75V39C5.6875 39.2155 5.7731 39.4222 5.92548 39.5745C6.07785 39.7269 6.28451 39.8125 6.5 39.8125H13C13.2155 39.8125 13.4222 39.7269 13.5745 39.5745C13.7269 39.4222 13.8125 39.2155 13.8125 39V35.75C13.8125 35.5345 13.7269 35.3278 13.5745 35.1755C13.4222 35.0231 13.2155 34.9375 13 34.9375H6.5ZM12.1875 38.1875H7.3125V36.5625H12.1875V38.1875ZM29.25 30.875C27.9644 30.875 26.7077 31.2562 25.6388 31.9704C24.5699 32.6847 23.7368 33.6998 23.2448 34.8876C22.7528 36.0753 22.6241 37.3822 22.8749 38.6431C23.1257 39.904 23.7448 41.0622 24.6538 41.9712C25.5628 42.8802 26.721 43.4993 27.9819 43.7501C29.2428 44.0009 30.5497 43.8722 31.7374 43.3802C32.9252 42.8882 33.9403 42.0551 34.6546 40.9862C35.3688 39.9173 35.75 38.6606 35.75 37.375C35.7481 35.6517 35.0626 33.9995 33.8441 32.7809C32.6255 31.5624 30.9733 30.8769 29.25 30.875ZM29.25 42.25C28.2858 42.25 27.3433 41.9641 26.5416 41.4284C25.7399 40.8927 25.1151 40.1314 24.7461 39.2406C24.3771 38.3498 24.2806 37.3696 24.4687 36.4239C24.6568 35.4783 25.1211 34.6096 25.8029 33.9279C26.4846 33.2461 27.3533 32.7818 28.2989 32.5937C29.2446 32.4056 30.2248 32.5021 31.1156 32.8711C32.0064 33.2401 32.7677 33.8649 33.3034 34.6666C33.8391 35.4683 34.125 36.4108 34.125 37.375C34.1237 38.6675 33.6097 39.9068 32.6957 40.8207C31.7818 41.7347 30.5425 42.2487 29.25 42.25Z" fill="url(#paint2_linear_797_926)"/>
<path d="M26 34.9375C25.7845 34.9375 25.5778 35.0231 25.4255 35.1755C25.2731 35.3278 25.1875 35.5345 25.1875 35.75V39C25.1875 39.2155 25.2731 39.4222 25.4255 39.5745C25.5778 39.7269 25.7845 39.8125 26 39.8125H32.5C32.7155 39.8125 32.9222 39.7269 33.0745 39.5745C33.2269 39.4222 33.3125 39.2155 33.3125 39V35.75C33.3125 35.5345 33.2269 35.3278 33.0745 35.1755C32.9222 35.0231 32.7155 34.9375 32.5 34.9375H26ZM31.6875 38.1875H26.8125V36.5625H31.6875V38.1875ZM19.5 30.0625C18.8535 30.0625 18.2335 30.3193 17.7764 30.7764C17.3193 31.2335 17.0625 31.8535 17.0625 32.5V42.25C17.0625 42.8965 17.3193 43.5165 17.7764 43.9736C18.2335 44.4307 18.8535 44.6875 19.5 44.6875C20.1465 44.6875 20.7665 44.4307 21.2236 43.9736C21.6807 43.5165 21.9375 42.8965 21.9375 42.25V32.5C21.9375 31.8535 21.6807 31.2335 21.2236 30.7764C20.7665 30.3193 20.1465 30.0625 19.5 30.0625ZM18.6875 34.9375H20.3125V36.5625H18.6875V34.9375ZM18.6875 38.1875H20.3125V39.8231H18.6875V38.1875ZM19.5 31.6875C19.7155 31.6875 19.9222 31.7731 20.0745 31.9255C20.2269 32.0778 20.3125 32.2845 20.3125 32.5V33.3125H18.6875V32.5C18.6875 32.2845 18.7731 32.0778 18.9255 31.9255C19.0778 31.7731 19.2845 31.6875 19.5 31.6875ZM19.5 43.0625C19.2845 43.0625 19.0778 42.9769 18.9255 42.8245C18.7731 42.6722 18.6875 42.4655 18.6875 42.25V41.4481H20.3125V42.25C20.3125 42.4655 20.2269 42.6722 20.0745 42.8245C19.9222 42.9769 19.7155 43.0625 19.5 43.0625ZM12.1875 28.4375H26.8125C27.028 28.4375 27.2347 28.3519 27.387 28.1995C27.5394 28.0472 27.625 27.8405 27.625 27.625V24.375C27.625 24.1595 27.5394 23.9528 27.387 23.8005C27.2347 23.6481 27.028 23.5625 26.8125 23.5625H12.1875C11.972 23.5625 11.7653 23.6481 11.613 23.8005C11.4606 23.9528 11.375 24.1595 11.375 24.375V27.625C11.375 27.8405 11.4606 28.0472 11.613 28.1995C11.7653 28.3519 11.972 28.4375 12.1875 28.4375ZM13 25.1875H26V26.8125H13V25.1875Z" fill="url(#paint3_linear_797_926)"/>
<defs>
<linearGradient id="paint0_linear_797_926" x1="19.5" y1="0" x2="19.5" y2="48.75" gradientUnits="userSpaceOnUse">
<stop stop-color="#EFD0AD"/>
<stop offset="1" stop-color="#C7D6CE"/>
</linearGradient>
<linearGradient id="paint1_linear_797_926" x1="9.75" y1="30.875" x2="9.75" y2="43.875" gradientUnits="userSpaceOnUse">
<stop stop-color="#EFD0AD"/>
<stop offset="1" stop-color="#C7D6CE"/>
</linearGradient>
<linearGradient id="paint2_linear_797_926" x1="20.7188" y1="30.875" x2="20.7188" y2="43.875" gradientUnits="userSpaceOnUse">
<stop stop-color="#EFD0AD"/>
<stop offset="1" stop-color="#C7D6CE"/>
</linearGradient>
<linearGradient id="paint3_linear_797_926" x1="22.3438" y1="23.5625" x2="22.3438" y2="44.6875" gradientUnits="userSpaceOnUse">
<stop stop-color="#EFD0AD"/>
<stop offset="1" stop-color="#C7D6CE"/>
</linearGradient>
</defs>
</svg>
