<svg width="38" height="42" viewBox="0 0 38 42" fill="none" xmlns="http://www.w3.org/2000/svg">
<path d="M14.6528 9.49451C13.0516 9.49451 11.7534 10.7927 11.7534 12.3939C11.7575 13.9935 13.0532 15.2893 14.6528 15.2934C16.2541 15.2934 17.5523 13.9952 17.5523 12.3939C17.5523 10.7927 16.2541 9.49451 14.6528 9.49451ZM14.6528 13.8029C13.8706 13.8029 13.2365 13.1687 13.2365 12.3865C13.2365 11.6043 13.8706 10.9702 14.6528 10.9702C15.4351 10.9702 16.0692 11.6043 16.0692 12.3865C16.0692 13.1687 15.4351 13.8029 14.6528 13.8029ZM22.9136 9.49451C21.3123 9.49451 20.0142 10.7927 20.0142 12.3939C20.0183 13.9935 21.314 15.2893 22.9136 15.2934C24.515 15.2934 25.813 13.9952 25.813 12.3939C25.813 10.7927 24.5149 9.49451 22.9136 9.49451ZM22.9136 13.8029C22.1314 13.8029 21.4973 13.1687 21.4973 12.3865C21.4973 11.6043 22.1314 10.9702 22.9136 10.9702C23.6958 10.9702 24.3299 11.6043 24.3299 12.3865C24.3299 13.1687 23.6958 13.8029 22.9136 13.8029Z" fill="url(#paint0_linear_797_877)"/>
<path d="M31.7612 12.8312C31.4524 11.095 30.0535 9.75961 28.3048 9.53159C27.8228 7.76672 26.4436 6.26881 23.685 6.26881H19.525V4.71899C20.7957 4.30948 21.4939 2.94727 21.0844 1.67655C20.6747 0.405824 19.3126 -0.292336 18.0419 0.11718C16.7712 0.526695 16.073 1.88881 16.4825 3.15963C16.6002 3.52459 16.8029 3.85634 17.0741 4.12748C17.3452 4.39862 17.6769 4.60137 18.0419 4.71899V6.20207H13.8745C11.9242 6.20207 9.86272 7.09934 9.23983 9.46485C7.02716 9.75813 5.47123 11.7896 5.76451 14.0022C5.99615 15.7496 7.33342 17.1453 9.06927 17.4512V17.518C9.29915 20.6918 11.6572 21.8412 13.8745 21.8412H23.685C26.9923 21.8412 28.3197 19.6907 28.4902 17.518C30.6877 17.127 32.1522 15.0286 31.7612 12.8312ZM9.04703 15.983C7.69761 15.5783 6.93178 14.1562 7.33648 12.8068C7.45777 12.4024 7.67755 12.0344 7.97609 11.7359C8.27464 11.4373 8.64262 11.2175 9.04703 11.0962V15.983ZM17.8417 2.49437C17.8212 1.97872 18.2227 1.54418 18.7382 1.5237C19.2538 1.50321 19.6884 1.90466 19.7089 2.42022C19.7294 2.93587 19.3279 3.37041 18.8124 3.39089C18.8027 3.39127 18.7931 3.39154 18.7835 3.39164C18.5412 3.39191 18.3082 3.29882 18.1328 3.13171C17.9574 2.96461 17.8531 2.73635 17.8417 2.49437ZM27.0294 17.0286C27.0294 18.2818 26.5919 20.3729 23.685 20.3729H13.8745C12.6213 20.3729 10.5301 19.9354 10.5301 17.0286V11.0962C10.5301 8.18199 12.6287 7.75189 13.8745 7.75189H23.685C26.5993 7.75189 27.0294 9.85045 27.0294 11.0962V17.0286ZM30.2304 14.2724C30.1091 14.6768 29.8894 15.0447 29.5908 15.3433C29.2923 15.6418 28.9243 15.8616 28.5199 15.9829V11.0961C29.8693 11.5009 30.6351 12.9229 30.2304 14.2724Z" fill="url(#paint1_linear_797_877)"/>
<path d="M22.9137 17.2213H14.653C14.4563 17.2213 14.2677 17.2994 14.1286 17.4385C13.9895 17.5776 13.9114 17.7662 13.9114 17.9629C13.9114 18.1595 13.9895 18.3481 14.1286 18.4872C14.2677 18.6263 14.4563 18.7044 14.653 18.7044H22.9137C23.1104 18.7044 23.299 18.6263 23.4381 18.4872C23.5771 18.3481 23.6553 18.1595 23.6553 17.9629C23.6553 17.7662 23.5771 17.5776 23.4381 17.4385C23.299 17.2994 23.1104 17.2213 22.9137 17.2213ZM21.3184 28.5064C21.2489 28.4277 21.1635 28.3646 21.0678 28.3213C20.9721 28.278 20.8683 28.2556 20.7633 28.2554H18.1456L21.223 25.7416C21.2991 25.6791 21.362 25.6022 21.4082 25.5153C21.4543 25.4283 21.4828 25.3331 21.4919 25.2351C21.5011 25.1371 21.4907 25.0383 21.4614 24.9443C21.4321 24.8503 21.3845 24.7631 21.3213 24.6877C21.2581 24.6122 21.1805 24.55 21.0932 24.5047C21.0058 24.4594 20.9103 24.4319 20.8122 24.4237C20.7141 24.4155 20.6154 24.4268 20.5217 24.457C20.428 24.4872 20.3413 24.5357 20.2664 24.5996L15.5947 28.4482C15.4747 28.5445 15.3876 28.6757 15.3455 28.8237C15.3034 28.9716 15.3084 29.129 15.3597 29.2741C15.411 29.4191 15.5062 29.5445 15.632 29.6331C15.7578 29.7216 15.908 29.7688 16.0619 29.7682H18.7833L15.5725 32.586C15.4564 32.7231 15.394 32.8977 15.397 33.0774C15.4 33.257 15.468 33.4294 15.5886 33.5627C15.7091 33.6959 15.8739 33.7808 16.0523 33.8017C16.2308 33.8225 16.4107 33.7779 16.5587 33.6761L21.2527 29.5531C21.3257 29.4887 21.3854 29.4106 21.4282 29.3231C21.471 29.2356 21.4962 29.1406 21.5023 29.0434C21.5084 28.9462 21.4953 28.8488 21.4638 28.7566C21.4322 28.6645 21.3828 28.5795 21.3184 28.5064ZM10.6264 36.1677C9.5329 36.1677 8.64648 37.0541 8.64648 38.1476C8.64648 39.2411 9.5329 40.1275 10.6264 40.1275C11.7199 40.1275 12.6063 39.2411 12.6063 38.1476C12.6063 37.0541 11.7199 36.1677 10.6264 36.1677ZM10.6264 38.6444C10.4946 38.6444 10.3683 38.5921 10.2751 38.4989C10.1819 38.4057 10.1296 38.2793 10.1296 38.1476C10.1296 38.0158 10.1819 37.8894 10.2751 37.7963C10.3683 37.7031 10.4946 37.6507 10.6264 37.6507C10.7582 37.6507 10.8845 37.7031 10.9777 37.7963C11.0709 37.8894 11.1232 38.0158 11.1232 38.1476C11.1232 38.2793 11.0709 38.4057 10.9777 38.4989C10.8845 38.5921 10.7582 38.6444 10.6264 38.6444ZM18.7833 36.1677C17.6898 36.1677 16.8034 37.0541 16.8034 38.1476C16.8034 39.2411 17.6898 40.1275 18.7833 40.1275C19.8768 40.1275 20.7633 39.2411 20.7633 38.1476C20.7633 37.0541 19.8768 36.1677 18.7833 36.1677ZM19.2802 38.1476C19.2802 38.2793 19.2278 38.4057 19.1347 38.4989C19.0415 38.5921 18.9151 38.6444 18.7833 38.6444C18.6516 38.6444 18.5252 38.5921 18.432 38.4989C18.3389 38.4057 18.2865 38.2793 18.2865 38.1476C18.2865 38.0158 18.3389 37.8894 18.432 37.7963C18.5252 37.7031 18.6516 37.6507 18.7833 37.6507C18.9151 37.6507 19.0415 37.7031 19.1347 37.7963C19.2278 37.8894 19.2802 38.0158 19.2802 38.1476ZM26.9403 36.1677C25.8468 36.1636 24.957 37.0467 24.9529 38.1402V38.1476C24.9529 39.2411 25.8394 40.1275 26.9329 40.1275C28.0264 40.1275 28.9128 39.2411 28.9128 38.1476C28.9128 37.057 28.0308 36.1717 26.9403 36.1677ZM26.9329 38.6444C26.8011 38.6444 26.6747 38.5921 26.5816 38.4989C26.4884 38.4057 26.436 38.2793 26.436 38.1476C26.436 38.0158 26.4884 37.8894 26.5816 37.7963C26.6747 37.7031 26.8011 37.6507 26.9329 37.6507C27.0646 37.6507 27.191 37.7031 27.2842 37.7963C27.3774 37.8894 27.4297 38.0158 27.4297 38.1476C27.4297 38.2793 27.3774 38.4057 27.2842 38.4989C27.191 38.5921 27.0646 38.6444 26.9329 38.6444Z" fill="url(#paint2_linear_797_877)"/>
<path d="M35.2159 27.6103L34.6152 26.5277C32.1978 22.2787 27.3481 22.516 26.9403 22.516H10.6264C10.1889 22.516 5.34665 22.249 2.9144 26.5054L2.32116 27.5807C0.96813 27.8199 -0.0135765 29.0023 0.000142001 30.3763C0.000142001 30.5729 0.0782683 30.7616 0.217334 30.9006C0.3564 31.0397 0.545013 31.1178 0.741682 31.1178C0.938351 31.1178 1.12696 31.0397 1.26603 30.9006C1.4051 30.7616 1.48322 30.5729 1.48322 30.3763C1.48322 29.6411 2.07914 29.0452 2.81429 29.0452C3.54943 29.0452 4.14535 29.6411 4.14535 30.3763C4.14535 30.5729 4.22348 30.7616 4.36254 30.9006C4.50161 31.0397 4.69022 31.1178 4.88689 31.1178C5.08356 31.1178 5.27217 31.0397 5.41124 30.9006C5.55031 30.7616 5.62843 30.5729 5.62843 30.3763C5.62786 29.8312 5.46924 29.2981 5.17179 28.8414C4.87434 28.3847 4.45082 28.024 3.95255 27.8031L4.24917 27.2692C4.75591 26.41 5.45353 25.6789 6.28804 25.1324C7.12256 24.5859 8.0716 24.2387 9.06176 24.1177V34.2323H9.02469C6.88071 34.326 5.21873 36.14 5.31244 38.284C5.40041 40.2966 7.01205 41.9082 9.02469 41.9962H28.5569C30.7008 42.0899 32.5148 40.4279 32.6085 38.284C32.7022 36.14 31.0402 34.326 28.8963 34.2323C28.7832 34.2274 28.67 34.2274 28.5569 34.2323H28.5199V24.1177C29.5082 24.2387 30.4557 24.5843 31.2899 25.128C32.1241 25.6717 32.8228 26.399 33.3325 27.2544L33.6365 27.8031C33.1354 28.0218 32.7088 28.3815 32.4086 28.8384C32.1084 29.2952 31.9476 29.8296 31.9458 30.3763C31.9458 30.5729 32.0239 30.7616 32.163 30.9006C32.302 31.0397 32.4907 31.1178 32.6873 31.1178C32.884 31.1178 33.0726 31.0397 33.2117 30.9006C33.3507 30.7616 33.4289 30.5729 33.4289 30.3763C33.4289 29.6411 34.0248 29.0452 34.7599 29.0452C35.4951 29.0452 36.091 29.6411 36.091 30.3763C36.091 30.5729 36.1691 30.7616 36.3082 30.9006C36.4473 31.0397 36.6359 31.1178 36.8325 31.1178C37.0292 31.1178 37.2178 31.0397 37.3569 30.9006C37.4959 30.7616 37.5741 30.5729 37.5741 30.3763C37.5702 29.0016 36.5725 27.8316 35.2159 27.6103ZM10.5671 23.999H27.0367V34.2323H10.5671V23.999ZM28.5569 35.745C29.8817 35.6713 31.0154 36.6857 31.0891 38.0105C31.1628 39.3354 30.1485 40.4691 28.8236 40.5428C28.7347 40.5477 28.6457 40.5477 28.5568 40.5428H9.00976C7.68491 40.4691 6.67057 39.3354 6.74427 38.0105C6.81221 36.7886 7.7878 35.813 9.00976 35.745H28.5569Z" fill="url(#paint3_linear_797_877)"/>
<defs>
<linearGradient id="paint0_linear_797_877" x1="18.7832" y1="9.49451" x2="18.3745" y2="15.3978" gradientUnits="userSpaceOnUse">
<stop stop-color="#FFB929"/>
<stop offset="1" stop-color="#9DDCF0"/>
</linearGradient>
<linearGradient id="paint1_linear_797_877" x1="18.7767" y1="0" x2="15.6986" y2="21.9085" gradientUnits="userSpaceOnUse">
<stop stop-color="#FFB929"/>
<stop offset="1" stop-color="#9DDCF0"/>
</linearGradient>
<linearGradient id="paint2_linear_797_877" x1="18.7796" y1="17.2213" x2="14.4886" y2="39.8376" gradientUnits="userSpaceOnUse">
<stop stop-color="#FFB929"/>
<stop offset="1" stop-color="#9DDCF0"/>
</linearGradient>
<linearGradient id="paint3_linear_797_877" x1="18.787" y1="22.5126" x2="17.0647" y2="42.296" gradientUnits="userSpaceOnUse">
<stop stop-color="#FFB929"/>
<stop offset="1" stop-color="#9DDCF0"/>
</linearGradient>
</defs>
</svg>
