<svg width="59" height="42" viewBox="0 0 59 42" fill="none" xmlns="http://www.w3.org/2000/svg">
<path d="M22.05 23.1C20.3133 23.1 18.9 24.5133 18.9 26.25C18.9 27.9867 20.3133 29.4 22.05 29.4C23.7867 29.4 25.2 27.9867 25.2 26.25C25.2 24.5133 23.7867 23.1 22.05 23.1ZM22.05 27.3C21.912 27.2999 21.7753 27.2725 21.6479 27.2196C21.5204 27.1666 21.4046 27.0891 21.3071 26.9914C21.2096 26.8937 21.1323 26.7778 21.0796 26.6502C21.0269 26.5226 20.9999 26.3859 21 26.2479C21.0001 26.1099 21.0275 25.9732 21.0804 25.8458C21.1334 25.7183 21.2109 25.6025 21.3086 25.505C21.4063 25.4075 21.5222 25.3302 21.6498 25.2775C21.7774 25.2248 21.9141 25.1978 22.0521 25.1979C22.3309 25.1982 22.5981 25.3092 22.795 25.5065C22.9919 25.7038 23.1024 25.9712 23.1021 26.25C23.1018 26.5288 22.9908 26.796 22.7935 26.9929C22.5962 27.1898 22.3288 27.3003 22.05 27.3ZM36.75 23.1C35.0133 23.1 33.6 24.5133 33.6 26.25C33.6 27.9867 35.0133 29.4 36.75 29.4C38.4867 29.4 39.9 27.9867 39.9 26.25C39.9 24.5133 38.4867 23.1 36.75 23.1ZM36.75 27.3C36.483 27.2831 36.2325 27.1651 36.0494 26.9701C35.8663 26.775 35.7643 26.5175 35.7643 26.25C35.7643 25.9825 35.8663 25.725 36.0494 25.5299C36.2325 25.3349 36.483 25.2169 36.75 25.2C37.017 25.2169 37.2675 25.3349 37.4506 25.5299C37.6337 25.725 37.7357 25.9825 37.7357 26.25C37.7357 26.5175 37.6337 26.775 37.4506 26.9701C37.2675 27.1651 37.017 27.2831 36.75 27.3ZM38.85 18.9H19.95C15.897 18.9 12.6 22.197 12.6 26.25C12.6 30.303 15.897 33.6 19.95 33.6H38.85C42.903 33.6 46.2 30.303 46.2 26.25C46.2 22.197 42.903 18.9 38.85 18.9ZM38.85 31.5H19.95C17.0562 31.5 14.7 29.1459 14.7 26.25C14.7 23.3541 17.0562 21 19.95 21H38.85C41.7459 21 44.1 23.3541 44.1 26.25C44.1 29.1459 41.7459 31.5 38.85 31.5ZM56.7 23.2932V6.1068C57.918 5.6721 58.8 4.5171 58.8 3.15C58.8 1.4133 57.3867 0 55.65 0C53.9133 0 52.5 1.4133 52.5 3.15C52.5 4.5171 53.382 5.67 54.6 6.1068V23.2932C54.1733 23.4423 53.7837 23.6815 53.4576 23.9946C50.2572 13.755 40.6833 6.3 29.4 6.3C18.1167 6.3 8.5428 13.755 5.3424 23.9946C5.01634 23.6815 4.62671 23.4423 4.2 23.2932V6.1068C5.418 5.67 6.3 4.515 6.3 3.15C6.3 1.4133 4.8867 0 3.15 0C1.4133 0 0 1.4133 0 3.15C0 4.5171 0.882 5.67 2.1 6.1068V23.2932C0.882 23.7279 0 24.8829 0 26.25V34.65C0 36.3867 1.4133 37.8 3.15 37.8C4.137 37.8 5.0106 37.3338 5.5902 36.6177C7.392 39.8118 10.7772 42 14.7 42H44.1C48.0228 42 51.408 39.8118 53.2098 36.6177C53.7894 37.3317 54.6609 37.8 55.65 37.8C57.3867 37.8 58.8 36.3867 58.8 34.65V26.25C58.8 24.8829 57.918 23.73 56.7 23.2932ZM55.65 2.1C55.917 2.11689 56.1675 2.23487 56.3506 2.42993C56.5337 2.62498 56.6357 2.88247 56.6357 3.15C56.6357 3.41753 56.5337 3.67502 56.3506 3.87007C56.1675 4.06513 55.917 4.1831 55.65 4.2C55.383 4.1831 55.1325 4.06513 54.9494 3.87007C54.7663 3.67502 54.6643 3.41753 54.6643 3.15C54.6643 2.88247 54.7663 2.62498 54.9494 2.42993C55.1325 2.23487 55.383 2.11689 55.65 2.1ZM3.15 2.1C3.28803 2.10014 3.42467 2.12746 3.55214 2.18041C3.67961 2.23336 3.7954 2.31089 3.8929 2.40859C3.9904 2.50628 4.0677 2.62223 4.1204 2.7498C4.17309 2.87737 4.20014 3.01407 4.2 3.1521C4.19986 3.29013 4.17254 3.42677 4.11959 3.55424C4.06664 3.68171 3.98911 3.7975 3.89141 3.895C3.79372 3.9925 3.67777 4.0698 3.5502 4.1225C3.42263 4.17519 3.28593 4.20224 3.1479 4.2021C2.86914 4.20182 2.60192 4.09082 2.405 3.89351C2.20809 3.69621 2.09762 3.42876 2.0979 3.15C2.09818 2.87124 2.20918 2.60402 2.40649 2.4071C2.60379 2.21019 2.87124 2.09972 3.15 2.1ZM4.2 34.65C4.2 34.9285 4.08938 35.1955 3.89246 35.3925C3.69555 35.5894 3.42848 35.7 3.15 35.7C2.87152 35.7 2.60445 35.5894 2.40754 35.3925C2.21062 35.1955 2.1 34.9285 2.1 34.65V26.25C2.1 25.9715 2.21062 25.7044 2.40754 25.5075C2.60445 25.3106 2.87152 25.2 3.15 25.2C3.42848 25.2 3.69555 25.3106 3.89246 25.5075C4.08938 25.7044 4.2 25.9715 4.2 26.25V34.65ZM44.1 39.9H14.7C10.0674 39.9 6.3 36.1326 6.3 31.5C6.3 18.7635 16.6635 8.4 29.4 8.4C42.1365 8.4 52.5 18.7635 52.5 31.5C52.5 36.1326 48.7326 39.9 44.1 39.9ZM56.7 34.65C56.6831 34.917 56.5651 35.1675 56.3701 35.3506C56.175 35.5337 55.9175 35.6357 55.65 35.6357C55.3825 35.6357 55.125 35.5337 54.9299 35.3506C54.7349 35.1675 54.6169 34.917 54.6 34.65V26.25C54.6169 25.983 54.7349 25.7325 54.9299 25.5494C55.125 25.3663 55.3825 25.2643 55.65 25.2643C55.9175 25.2643 56.175 25.3663 56.3701 25.5494C56.5651 25.7325 56.6831 25.983 56.7 26.25V34.65Z" fill="url(#paint0_linear_797_882)"/>
<defs>
<linearGradient id="paint0_linear_797_882" x1="29.4" y1="-9.63807e-07" x2="52.5" y2="37.5" gradientUnits="userSpaceOnUse">
<stop offset="0.114742" stop-color="#FFB929"/>
<stop offset="1" stop-color="#9DDCF0"/>
</linearGradient>
</defs>
</svg>
